# Blender v2.82 (sub 7) OBJ File: 'scene - Kopie.blend'
# www.blender.org
mtllib trap01.mtl
o Trap01_Cube.061
v -2.189891 11.928319 -13.573565
v -2.189891 12.154071 -13.573565
v -2.189891 11.928319 -13.799316
v -2.189891 12.154071 -13.799316
v -1.964138 11.928319 -13.573565
v -1.964138 12.154071 -13.573565
v -1.964138 11.928319 -13.799316
v -1.964138 12.154071 -13.799316
vt 0.338188 0.328479
vt 0.661812 0.004854
vt 0.661812 0.328479
vt 0.004854 0.661812
vt 0.328479 0.338188
vt 0.328479 0.661812
vt 0.004854 0.328479
vt 0.328479 0.004854
vt 0.328479 0.328479
vt 0.338188 0.338188
vt 0.661812 0.661812
vt 0.338188 0.661812
vt 0.671521 0.328479
vt 0.995146 0.004854
vt 0.995146 0.328479
vt 0.328479 0.995146
vt 0.004854 0.671521
vt 0.328479 0.671521
vt 0.338188 0.004854
vt 0.004854 0.338188
vt 0.004854 0.004854
vt 0.661812 0.338188
vt 0.671521 0.004854
vt 0.004854 0.995146
vn -1.0000 0.0000 0.0000
vn 0.0000 0.0000 -1.0000
vn 1.0000 0.0000 0.0000
vn 0.0000 0.0000 1.0000
vn 0.0000 -1.0000 0.0000
vn 0.0000 1.0000 0.0000
usemtl Material.005
s off
f 2/1/1 3/2/1 1/3/1
f 4/4/2 7/5/2 3/6/2
f 8/7/3 5/8/3 7/9/3
f 6/10/4 1/11/4 5/12/4
f 7/13/5 1/14/5 3/15/5
f 4/16/6 6/17/6 8/18/6
f 2/1/1 4/19/1 3/2/1
f 4/4/2 8/20/2 7/5/2
f 8/7/3 6/21/3 5/8/3
f 6/10/4 2/22/4 1/11/4
f 7/13/5 5/23/5 1/14/5
f 4/16/6 2/24/6 6/17/6
