# Blender v2.79 (sub 0) OBJ File: 'cave.blend'
# www.blender.org
mtllib MountainAtlas.mtl
o Cube.023_Cube
v -0.175893 2.066282 -28.764339
v -0.477581 7.133871 -19.122473
v 0.670213 3.499474 -12.454222
v -10.242584 2.117900 -17.455338
v 3.768316 -0.555580 -15.496414
v -4.717621 -0.990540 -16.037495
v 6.385330 -2.713271 -24.655460
v 6.910309 11.694401 -24.883135
v -7.706146 11.018540 -23.921627
v -1.674199 -0.612097 -15.030955
v 3.760542 3.548501 -15.204038
v 0.035066 9.677338 -17.029043
v -2.243715 3.579682 -13.510863
v -8.285118 -3.323775 -21.812191
v -7.590077 10.699783 -19.534986
v -8.443023 9.188847 -24.323616
v -2.112145 -4.000404 -24.398493
v -0.996428 9.306458 -22.951483
v 6.939256 3.377189 -25.322695
v 5.038247 -2.229012 -18.570383
v 7.918160 12.124022 -23.630634
v 0.263738 -3.807361 -18.767813
v 8.169870 11.465887 -18.684669
v 3.374297 6.443534 -15.383863
v 3.565871 -3.953148 -24.580767
v 3.241012 12.173792 -24.191475
v -8.931607 -1.825495 -23.571911
v -1.735135 1.750739 -14.132681
v 0.490181 6.049057 -13.525147
v -7.152085 3.616230 -16.384966
v -3.534352 -3.656261 -18.673096
v -8.163693 7.315213 -18.764713
v -6.322463 3.225845 -24.939356
v -9.781807 2.654537 -20.039516
v -3.521420 -4.738991 -21.362211
v -1.271913 8.916924 -25.345997
v 7.941315 3.602235 -23.556087
v 3.090874 -4.494280 -21.986958
v 7.351770 -0.278664 -20.995350
v 5.298978 12.508810 -18.122087
v 8.431396 7.758541 -21.429964
v 9.100915 0.851773 -19.493597
v 0.670213 3.499474 -12.454222
v 6.370587 6.943958 -16.970167
v -8.083033 0.379626 -18.188221
v -4.810910 12.046824 -18.450731
v -6.846927 10.561769 -17.292950
v -2.658417 7.859346 -15.158058
v 4.375066 2.271643 -27.451950
v 7.108065 -2.479905 -23.407528
v 8.849885 9.300483 -24.614609
v 3.909313 8.838974 -25.846394
v -9.495964 -2.243195 -21.934771
v -7.514406 -3.539489 -23.398569
v -5.345588 11.359982 -22.931244
v -6.424600 8.836503 -24.281784
v -8.965604 7.993350 -20.989307
v 3.768316 -0.555580 -15.496414
v 3.760542 3.548501 -15.204038
v -2.243715 3.579682 -13.510863
v -1.735135 1.750739 -14.132681
v 0.670213 3.499474 -12.454222
v 3.768316 -0.555580 -15.496414
v 3.760542 3.548501 -15.204038
v -2.243715 3.579682 -13.510863
v -1.735135 1.750739 -14.132681
v -0.230771 3.302531 -13.504238
v 2.867331 -0.752523 -16.546431
v 2.859557 3.351558 -16.254055
v -2.350502 3.668718 -15.118813
v -2.210667 1.553796 -15.481583
v -4.717621 -0.990540 -16.037495
v -1.674199 -0.612097 -15.030955
v -1.735135 1.750739 -14.132681
v -2.210667 1.553796 -15.481583
v 3.760542 3.548501 -15.204038
v 9.100915 0.851773 -19.493597
v 2.867331 -0.752523 -16.546431
v 2.859557 3.351558 -16.254055
v -2.243715 3.579682 -13.510863
v -7.152085 3.616230 -16.384966
v -2.350502 3.668718 -15.118813
v -2.210667 1.553796 -15.481583
v -1.674199 -0.612097 -15.030955
v -2.210667 1.553796 -15.481583
v -0.477581 7.133871 -19.122473
v 0.035066 9.677338 -17.029043
v -0.230771 3.302531 -13.504238
v 2.859557 3.351558 -16.254055
vt 0.194070 0.888531
vt 0.117956 0.783700
vt 0.239662 0.838016
vt 0.242948 0.201126
vt 0.238481 0.084696
vt 0.418588 0.276289
vt 0.252877 0.649797
vt 0.240290 0.544107
vt 0.322895 0.557398
vt 0.973429 0.665628
vt 0.973429 0.840933
vt 0.913786 0.640739
vt 0.418588 0.656144
vt 0.526937 0.702334
vt 0.418588 0.656144
vt 0.512033 0.519183
vt 0.526568 0.438044
vt 0.593071 0.494158
vt 0.782049 0.178230
vt 0.637970 0.195649
vt 0.732127 0.124479
vt 0.584305 0.735538
vt 0.526937 0.702334
vt 0.606676 0.638156
vt 0.617721 0.380203
vt 0.575049 0.277106
vt 0.690965 0.338377
vt 0.806830 0.914440
vt 0.808825 0.813793
vt 0.843960 0.939218
vt 0.909588 0.130886
vt 0.807245 0.166347
vt 0.801184 0.091692
vt 0.490660 0.833726
vt 0.680139 0.815427
vt 0.622710 0.904311
vt 0.562285 0.833305
vt 0.710059 1.000000
vt 0.531619 0.999587
vt 0.503581 0.900272
vt 0.436167 0.333176
vt 0.519385 0.220973
vt 0.889916 0.058460
vt 0.940468 0.093812
vt 0.959813 0.169383
vt 0.087988 0.487557
vt 0.095080 0.430361
vt 0.235778 0.408069
vt 0.490715 0.158490
vt 0.418670 0.290788
vt 0.322895 0.661605
vt 0.385821 0.544107
vt 0.385821 0.729809
vt 0.070306 0.620136
vt 0.068151 0.803886
vt 0.112037 0.977073
vt 0.000000 0.862185
vt 0.622952 0.080017
vt 0.676050 0.007081
vt 0.240290 0.952936
vt 0.146951 0.960607
vt 0.970290 0.914029
vt 0.416626 0.437326
vt 0.473967 0.519183
vt 0.660480 0.533961
vt 0.083178 0.277153
vt 0.077672 0.127392
vt 0.322895 0.749122
vt 0.731245 0.435403
vt 0.765319 0.366557
vt 0.731245 0.435403
vt 1.000000 0.110632
vt 0.931398 0.000000
vt 0.474423 0.479751
vt 0.418588 0.372405
vt 0.754166 0.669047
vt 0.730396 0.582518
vt 0.800822 0.073957
vt 0.149934 0.655747
vt 0.585431 0.040220
vt 0.731245 0.435403
vt 0.765319 0.366557
vt 0.754166 0.936047
vt 0.005536 0.058213
vt 0.065906 0.000000
vt 0.375724 0.038849
vt 0.410701 0.115515
vt 0.032728 0.568816
vt 0.069343 0.544607
vt 0.373511 0.479961
vt 0.418588 0.472565
vt 0.391680 0.508244
vt 0.042093 0.474751
vt 0.035069 0.417496
vt 0.503581 0.900272
vt 0.490660 0.833726
vt 0.765319 0.366557
vt 0.912601 0.226035
vt 0.274628 0.544107
vt 0.800822 0.053021
vt 0.754166 0.667521
vt 0.764427 0.812264
vt 0.817106 0.665672
vt 0.801360 0.563474
vt 0.758175 0.519183
vt 0.216487 0.033012
vt 0.191941 0.544107
vt 0.240290 0.679254
vt 0.526937 0.702334
vt 0.418588 0.656144
vt 0.503581 0.900272
vt 0.490660 0.833726
vt 0.490660 0.833726
vt 0.526937 0.702334
vt 0.731245 0.435403
vt 0.418588 0.656144
vt 0.765319 0.366557
vt 0.690965 0.338377
vt 0.765319 0.366557
vt 0.765319 0.366557
vt 0.526937 0.702334
vt 0.418588 0.656144
vt 0.526937 0.702334
vt 0.473967 0.519183
vt 0.765319 0.366557
vt 0.690965 0.338377
vt 0.765319 0.366557
vt 0.731245 0.435403
vt 0.503581 0.900272
vt 0.531619 0.999587
vt 0.490660 0.833726
vt 0.526937 0.702334
vt 0.322895 0.557398
vt 0.240290 0.544107
vt 1.000000 0.006018
vt 0.639047 0.000000
vt 0.000000 0.168109
vt 0.503581 0.900272
vt 0.617721 0.380203
vn 0.7311 -0.4496 -0.5131
vn 0.2437 -0.6165 -0.7486
vn 0.4614 0.5065 -0.7284
vn -0.4638 0.6169 -0.6359
vn 0.0000 0.0000 1.0000
vn -0.0780 -0.4680 0.8803
vn 0.2441 -0.8058 0.5395
vn 0.4497 0.1150 0.8857
vn -0.1329 -0.7260 0.6747
vn 0.0533 0.9306 -0.3621
vn -0.1739 0.9818 0.0759
vn 0.0648 -0.7416 0.6677
vn 0.6576 0.1338 0.7414
vn 0.0283 0.6962 0.7173
vn -0.5000 0.1338 0.8556
vn -0.2539 0.3259 0.9107
vn -0.2969 -0.8863 0.3554
vn -0.4136 -0.7263 0.5490
vn -0.5978 -0.5438 0.5890
vn -0.8876 0.2399 0.3931
vn -0.9198 0.2285 0.3190
vn 0.0410 0.1170 -0.9923
vn -0.1350 -0.9466 -0.2929
vn 0.3903 0.8225 0.4138
vn 0.8599 -0.2225 -0.4594
vn 0.6677 -0.1408 -0.7310
vn 0.5045 -0.8238 0.2586
vn 0.7933 -0.4875 0.3647
vn 0.0180 0.9980 -0.0612
vn 0.3577 0.9279 0.1053
vn -0.0276 -0.9273 0.3732
vn 0.0601 -0.9641 0.2585
vn 0.9906 -0.1351 0.0232
vn -0.1941 -0.1852 -0.9633
vn 0.8728 0.2083 0.4414
vn -0.2027 0.1103 -0.9730
vn -0.0801 0.4348 -0.8970
vn -0.2845 0.3202 0.9036
vn 0.7237 0.6640 -0.1881
vn -0.6861 0.7012 0.1939
vn 0.4669 0.3703 0.8031
vn -0.8455 0.1056 0.5235
vn -0.8988 0.2062 0.3869
vn -0.8430 -0.2362 0.4833
vn 0.2714 0.2449 0.9308
vn 0.5773 -0.5930 0.5613
vn 0.9875 -0.1465 0.0588
vn 0.4132 -0.9036 -0.1128
vn -0.0028 0.6172 0.7868
vn 0.2340 0.0809 -0.9689
vn 0.1659 -0.4307 -0.8871
vn 0.6241 0.4327 -0.6506
vn -0.5926 -0.7077 -0.3848
vn -0.2841 -0.9588 -0.0077
vn 0.3228 0.3356 -0.8850
vn -0.9017 0.4287 0.0550
vn -0.0143 -0.7636 0.6455
vn 0.6082 -0.0553 0.7919
vn 0.6081 -0.0555 0.7919
vn -0.5923 -0.2554 0.7642
vn -0.0385 0.4213 0.9061
vn 0.0924 0.6444 0.7591
vn 0.3313 0.6766 0.6576
vn -0.1227 -0.1998 -0.9721
vn -0.2335 -0.3706 0.8990
vn -0.5630 -0.5621 0.6058
vn -0.4926 0.8432 0.2152
vn -0.4054 0.9096 -0.0911
vn -0.9484 0.0648 -0.3104
vn 0.0016 -0.9790 -0.2039
vn -0.9855 0.1316 -0.1073
vn -0.0804 0.4301 -0.8992
vn -0.0257 -0.4159 -0.9090
vn -0.3832 0.7801 0.4946
vn -0.1802 0.5229 -0.8331
vn 0.8683 -0.1314 -0.4783
vn 0.5594 0.2341 -0.7952
vn 0.9008 -0.2155 0.3769
vn 0.2690 -0.8662 0.4210
vn 0.5901 -0.8030 -0.0829
vn 0.9444 0.2296 0.2353
vn 0.1026 -0.9899 0.0976
vn 0.9580 0.2827 -0.0480
vn -0.1315 -0.9478 0.2906
vn -0.7536 -0.0481 0.6556
vn 0.7204 -0.6759 -0.1553
vn 0.9241 0.1564 -0.3486
vn -0.4725 0.3505 -0.8086
vn -0.5401 -0.3712 -0.7553
vn -0.4498 0.3401 -0.8259
vn 0.2582 0.2467 -0.9341
vn -0.3109 0.3493 0.8839
vn -0.4635 0.3863 0.7975
vn -0.9323 0.3493 -0.0937
vn -0.6576 -0.7057 -0.2638
vn 0.4174 0.2606 0.8706
vn 0.9649 0.0201 -0.2618
vn 0.4005 -0.9143 -0.0609
vn -0.1141 0.4232 -0.8988
vn -0.7289 -0.6298 -0.2685
vn 0.0541 0.1934 -0.9796
vn -0.9267 0.3756 -0.0106
vn -0.4963 -0.1985 0.8451
vn -0.3937 -0.0452 -0.9181
vn -0.9643 0.0248 -0.2635
vn 0.0143 -0.9731 -0.2301
vn -0.5725 0.8171 -0.0671
vn 0.4182 0.8877 -0.1925
vn 0.8694 -0.1307 -0.4765
vn 0.2383 0.0391 -0.9704
vn 0.9945 0.0980 -0.0376
vn 0.9305 0.1208 -0.3457
vn -0.1361 -0.9896 -0.0458
vn -0.3248 0.1149 0.9388
vn -0.2548 -0.3494 0.9017
vn 0.7535 0.0481 -0.6556
usemtl Material
s off
f 39/1/1 37/2/1 42/3/1
f 1/4/2 49/5/2 17/6/2
f 46/7/3 12/8/3 2/9/3
f 12/10/4 40/11/4 2/12/4
f 5/13/5 59/14/5 58/15/5
f 4/16/6 45/17/6 30/18/6
f 5/19/7 22/20/7 20/21/7
f 24/22/8 11/23/8 44/24/8
f 6/25/9 31/26/9 10/27/9
f 8/28/10 26/29/10 21/30/10
f 15/31/11 55/32/11 9/33/11
f 22/20/12 5/19/12 10/27/12
f 11/23/13 24/22/13 3/34/13
f 12/35/14 48/36/14 29/37/14
f 47/38/15 30/39/15 13/40/15
f 13/40/16 48/36/16 47/38/16
f 14/41/17 35/42/17 31/26/17
f 31/26/18 6/25/18 14/41/18
f 6/25/19 45/17/19 14/41/19
f 15/31/20 57/43/20 32/44/20
f 32/44/21 47/45/21 15/31/21
f 16/46/22 56/47/22 33/48/22
f 17/49/23 35/42/23 54/50/23
f 18/51/24 55/52/24 2/53/24
f 51/54/25 37/2/25 19/55/25
f 7/56/26 49/57/26 19/55/26
f 20/21/27 38/58/27 50/59/27
f 20/60/28 50/61/28 39/1/28
f 21/30/29 26/29/29 40/11/29
f 40/11/30 23/62/30 21/30/30
f 31/26/31 35/42/31 22/20/31
f 35/42/32 38/58/32 22/20/32
f 39/1/33 50/61/33 37/2/33
f 33/48/34 17/6/34 54/63/34
f 42/64/35 41/65/35 44/24/35
f 36/66/36 33/48/36 56/47/36
f 52/67/37 1/4/37 36/66/37
f 13/40/38 29/37/38 48/36/38
f 2/9/39 55/68/39 46/7/39
f 40/11/40 26/29/40 2/12/40
f 60/69/5 66/70/5 65/71/5
f 3/34/41 24/22/41 29/37/41
f 32/44/42 30/72/42 47/45/42
f 34/73/43 32/44/43 57/43/43
f 45/17/44 34/74/44 53/75/44
f 40/76/45 44/24/45 23/77/45
f 5/19/46 20/21/46 42/78/46
f 41/79/47 37/2/47 51/54/47
f 25/80/48 50/59/48 38/58/48
f 13/81/5 61/82/5 60/69/5
f 47/38/49 48/36/49 46/83/49
f 52/67/50 8/84/50 51/85/50
f 7/86/51 25/87/51 49/5/51
f 8/88/52 21/89/52 51/54/52
f 27/90/53 14/91/53 53/92/53
f 54/50/54 35/42/54 14/41/54
f 56/47/55 9/93/55 55/94/55
f 9/33/56 57/43/56 15/31/56
f 3/34/5 60/95/5 43/96/5
f 10/27/57 31/26/57 22/20/57
f 11/23/5 43/96/5 59/14/5
f 11/23/58 5/13/58 42/64/58
f 11/23/59 42/64/59 44/24/59
f 6/25/60 30/18/60 45/17/60
f 24/22/61 40/76/61 12/35/61
f 12/35/62 46/83/62 48/36/62
f 12/35/63 29/37/63 24/22/63
f 27/90/64 33/48/64 54/63/64
f 13/81/65 6/25/65 28/97/65
f 14/41/66 45/17/66 53/75/66
f 15/31/67 47/45/67 46/98/67
f 46/98/68 55/32/68 15/31/68
f 34/99/69 27/90/69 53/92/69
f 38/58/70 17/49/70 25/80/70
f 16/100/71 34/73/71 57/43/71
f 36/101/72 26/29/72 52/102/72
f 17/6/73 49/5/73 25/87/73
f 18/103/74 2/12/74 26/29/74
f 55/104/75 36/101/75 56/105/75
f 19/55/76 50/61/76 7/56/76
f 52/67/77 19/106/77 49/5/77
f 41/79/78 23/107/78 44/108/78
f 20/21/79 22/20/79 38/58/79
f 39/1/80 42/3/80 20/60/80
f 21/89/81 41/79/81 51/54/81
f 58/15/5 64/109/5 63/110/5
f 43/96/5 65/111/5 62/112/5
f 59/14/5 62/112/5 64/109/5
f 64/109/82 67/113/82 69/114/82
f 66/70/83 70/115/83 65/71/83
f 65/111/84 67/113/84 62/112/84
f 63/110/85 69/114/85 68/116/85
f 71/117/86 66/70/86 6/25/86
f 71/117/5 73/118/5 75/119/5
f 6/25/5 74/120/5 28/97/5
f 74/120/87 73/118/87 75/119/87
f 68/116/5 79/121/5 78/122/5
f 42/64/5 76/123/5 11/23/5
f 78/122/88 76/123/88 77/124/88
f 73/118/5 85/125/5 84/126/5
f 70/115/5 83/127/5 82/128/5
f 30/39/5 80/129/5 81/130/5
f 69/114/5 88/131/5 89/132/5
f 12/8/5 86/133/5 87/134/5
f 5/13/5 11/23/5 59/14/5
f 33/48/89 1/4/89 17/6/89
f 36/66/90 1/4/90 33/48/90
f 52/67/91 49/5/91 1/4/91
f 13/40/92 3/34/92 29/37/92
f 60/69/5 61/82/5 66/70/5
f 32/44/93 4/135/93 30/72/93
f 34/73/94 4/135/94 32/44/94
f 45/17/95 4/16/95 34/74/95
f 40/76/96 24/22/96 44/24/96
f 41/79/97 42/3/97 37/2/97
f 25/80/98 7/136/98 50/59/98
f 13/81/5 28/97/5 61/82/5
f 52/67/99 26/137/99 8/84/99
f 27/90/100 54/63/100 14/91/100
f 56/47/101 16/46/101 9/93/101
f 9/33/102 16/100/102 57/43/102
f 3/34/5 13/40/5 60/95/5
f 11/23/5 3/34/5 43/96/5
f 6/25/103 13/81/103 30/18/103
f 27/90/104 16/46/104 33/48/104
f 34/99/105 16/46/105 27/90/105
f 38/58/106 35/42/106 17/49/106
f 36/101/107 18/103/107 26/29/107
f 55/104/108 18/103/108 36/101/108
f 19/55/109 37/2/109 50/61/109
f 52/67/110 51/85/110 19/106/110
f 41/79/111 21/89/111 23/107/111
f 58/15/5 59/14/5 64/109/5
f 43/96/5 60/95/5 65/111/5
f 59/14/5 43/96/5 62/112/5
f 64/109/82 62/112/82 67/113/82
f 66/70/112 71/117/112 70/115/112
f 65/111/113 70/138/113 67/113/113
f 63/110/85 64/109/85 69/114/85
f 6/25/114 10/27/114 71/117/114
f 66/70/5 28/97/5 6/25/5
f 71/117/5 10/27/5 73/118/5
f 6/25/5 72/139/5 74/120/5
f 74/120/115 72/139/115 73/118/115
f 68/116/5 69/114/5 79/121/5
f 42/64/5 77/124/5 76/123/5
f 78/122/116 79/121/116 76/123/116
f 73/118/5 75/119/5 85/125/5
f 70/115/5 71/117/5 83/127/5
f 30/39/5 13/40/5 80/129/5
f 69/114/5 67/113/5 88/131/5
f 12/8/5 2/9/5 86/133/5
