# Blender v2.82 (sub 7) OBJ File: 'scene - Kopie.blend'
# www.blender.org
mtllib cube28.mtl
o Cube.040_Cube.111
v 21.036009 14.167809 -13.620733
v 21.036009 7.696140 -13.620733
v 21.701359 14.167809 -14.300703
v 21.701359 7.696140 -14.300703
v 23.451420 14.167809 -11.257257
v 23.451420 7.696140 -11.257257
v 24.116770 14.167809 -11.937227
v 24.116770 7.696140 -11.937227
vt 0.625000 0.000000
vt 0.375000 0.000000
vt 0.375000 0.250000
vt 0.625000 0.250000
vt 0.375000 0.500000
vt 0.625000 0.500000
vt 0.375000 0.750000
vt 0.625000 0.750000
vt 0.375000 1.000000
vt 0.125000 0.500000
vt 0.125000 0.750000
vt 0.875000 0.500000
vt 0.625000 1.000000
vt 0.875000 0.750000
vn -0.7147 0.0000 -0.6994
vn 0.6994 0.0000 -0.7147
vn 0.7147 0.0000 0.6994
vn -0.6994 0.0000 0.7147
vn 0.0000 1.0000 -0.0000
vn 0.0000 -1.0000 0.0000
usemtl None
s off
f 2/1/1 1/2/1 3/3/1
f 4/4/2 3/3/2 7/5/2
f 8/6/3 7/5/3 5/7/3
f 6/8/4 5/7/4 1/9/4
f 7/5/5 3/10/5 1/11/5
f 4/12/6 8/6/6 6/8/6
f 2/1/1 3/3/1 4/4/1
f 4/4/2 7/5/2 8/6/2
f 8/6/3 5/7/3 6/8/3
f 6/8/4 1/9/4 2/13/4
f 7/5/5 1/11/5 5/7/5
f 4/12/6 6/8/6 2/14/6
