# Blender v2.82 (sub 7) OBJ File: 'scene - Kopie.blend'
# www.blender.org
mtllib cube75.mtl
o Cube.088_Cube.161
v 21.352783 7.817172 2.406724
v 21.352783 8.616250 2.406724
v 17.183720 7.817172 -0.503965
v 17.183720 8.616250 -0.503965
v 24.074463 7.817172 -1.491615
v 24.074463 8.616250 -1.491615
v 19.905399 7.817172 -4.402305
v 19.905399 8.616250 -4.402305
vt 0.625000 0.000000
vt 0.375000 0.250000
vt 0.375000 0.000000
vt 0.625000 0.250000
vt 0.375000 0.500000
vt 0.625000 0.500000
vt 0.375000 0.750000
vt 0.625000 0.750000
vt 0.375000 1.000000
vt 0.125000 0.750000
vt 0.125000 0.500000
vt 0.875000 0.500000
vt 0.625000 1.000000
vt 0.875000 0.750000
vn -0.5725 0.0000 0.8199
vn -0.8199 0.0000 -0.5725
vn 0.5725 0.0000 -0.8199
vn 0.8199 0.0000 0.5725
vn 0.0000 -1.0000 0.0000
vn 0.0000 1.0000 0.0000
usemtl None
s off
f 2/1/1 3/2/1 1/3/1
f 4/4/2 7/5/2 3/2/2
f 8/6/3 5/7/3 7/5/3
f 6/8/4 1/9/4 5/7/4
f 7/5/5 1/10/5 3/11/5
f 4/12/6 6/8/6 8/6/6
f 2/1/1 4/4/1 3/2/1
f 4/4/2 8/6/2 7/5/2
f 8/6/3 6/8/3 5/7/3
f 6/8/4 2/13/4 1/9/4
f 7/5/5 5/7/5 1/10/5
f 4/12/6 2/14/6 6/8/6
