# Blender v2.82 (sub 7) OBJ File: 'scene - Kopie.blend'
# www.blender.org
mtllib cube70.mtl
o Cube.070_Cube.141
v 11.700053 7.866608 -6.216818
v 11.700053 9.143280 -6.216818
v 12.613396 7.866608 -6.601364
v 12.613396 9.143280 -6.601364
v 13.289902 7.866608 -2.440730
v 13.289902 9.143280 -2.440730
v 14.203244 7.866608 -2.825275
v 14.203244 9.143280 -2.825275
vt 0.625000 0.000000
vt 0.375000 0.250000
vt 0.375000 0.000000
vt 0.625000 0.250000
vt 0.375000 0.500000
vt 0.625000 0.500000
vt 0.375000 0.750000
vt 0.625000 0.750000
vt 0.375000 1.000000
vt 0.125000 0.750000
vt 0.125000 0.500000
vt 0.875000 0.500000
vt 0.625000 1.000000
vt 0.875000 0.750000
vn -0.3880 0.0000 -0.9216
vn 0.9216 0.0000 -0.3880
vn 0.3880 0.0000 0.9216
vn -0.9216 0.0000 0.3880
vn 0.0000 -1.0000 -0.0000
vn 0.0000 1.0000 0.0000
usemtl None
s off
f 2/1/1 3/2/1 1/3/1
f 4/4/2 7/5/2 3/2/2
f 8/6/3 5/7/3 7/5/3
f 6/8/4 1/9/4 5/7/4
f 7/5/5 1/10/5 3/11/5
f 4/12/6 6/8/6 8/6/6
f 2/1/1 4/4/1 3/2/1
f 4/4/2 8/6/2 7/5/2
f 8/6/3 6/8/3 5/7/3
f 6/8/4 2/13/4 1/9/4
f 7/5/5 5/7/5 1/10/5
f 4/12/6 2/14/6 6/8/6
