# Blender v2.82 (sub 7) OBJ File: 'scene - Kopie.blend'
# www.blender.org
mtllib cube15.mtl
o Cube.016_Cube.079
v -3.349670 10.924084 -17.821871
v -3.349670 15.380316 -17.821871
v -3.472971 10.924084 -18.805164
v -3.472971 15.380316 -18.805164
v 0.715622 10.924084 -18.331642
v 0.715622 15.380316 -18.331642
v 0.592321 10.924084 -19.314936
v 0.592321 15.380316 -19.314936
vt 0.625000 0.000000
vt 0.375000 0.250000
vt 0.375000 0.000000
vt 0.625000 0.250000
vt 0.375000 0.500000
vt 0.625000 0.500000
vt 0.375000 0.750000
vt 0.625000 0.750000
vt 0.375000 1.000000
vt 0.125000 0.750000
vt 0.125000 0.500000
vt 0.875000 0.500000
vt 0.625000 1.000000
vt 0.875000 0.750000
vn -0.9922 0.0000 0.1244
vn -0.1244 0.0000 -0.9922
vn 0.9922 0.0000 -0.1244
vn 0.1244 0.0000 0.9922
vn 0.0000 -1.0000 0.0000
vn 0.0000 1.0000 0.0000
usemtl None
s off
f 2/1/1 3/2/1 1/3/1
f 4/4/2 7/5/2 3/2/2
f 8/6/3 5/7/3 7/5/3
f 6/8/4 1/9/4 5/7/4
f 7/5/5 1/10/5 3/11/5
f 4/12/6 6/8/6 8/6/6
f 2/1/1 4/4/1 3/2/1
f 4/4/2 8/6/2 7/5/2
f 8/6/3 6/8/3 5/7/3
f 6/8/4 2/13/4 1/9/4
f 7/5/5 5/7/5 1/10/5
f 4/12/6 2/14/6 6/8/6
