# Blender v2.82 (sub 7) OBJ File: 'scene - Kopie.blend'
# www.blender.org
mtllib cube65.mtl
o Cube.001_Cube
v -12.739837 10.924084 -13.688457
v -12.739837 15.380316 -13.688457
v -12.816769 10.924084 -14.676461
v -12.816769 15.380316 -14.676461
v -8.655071 10.924084 -14.006524
v -8.655071 15.380316 -14.006524
v -8.732003 10.924084 -14.994528
v -8.732003 15.380316 -14.994528
vt 0.625000 0.000000
vt 0.375000 0.250000
vt 0.375000 0.000000
vt 0.625000 0.250000
vt 0.375000 0.500000
vt 0.625000 0.500000
vt 0.375000 0.750000
vt 0.625000 0.750000
vt 0.375000 1.000000
vt 0.125000 0.750000
vt 0.125000 0.500000
vt 0.875000 0.500000
vt 0.625000 1.000000
vt 0.875000 0.750000
vn -0.9970 0.0000 0.0776
vn -0.0776 0.0000 -0.9970
vn 0.9970 0.0000 -0.0776
vn 0.0776 0.0000 0.9970
vn 0.0000 -1.0000 0.0000
vn 0.0000 1.0000 0.0000
usemtl None
s off
f 2/1/1 3/2/1 1/3/1
f 4/4/2 7/5/2 3/2/2
f 8/6/3 5/7/3 7/5/3
f 6/8/4 1/9/4 5/7/4
f 7/5/5 1/10/5 3/11/5
f 4/12/6 6/8/6 8/6/6
f 2/1/1 4/4/1 3/2/1
f 4/4/2 8/6/2 7/5/2
f 8/6/3 6/8/3 5/7/3
f 6/8/4 2/13/4 1/9/4
f 7/5/5 5/7/5 1/10/5
f 4/12/6 2/14/6 6/8/6
