# Blender v2.82 (sub 7) OBJ File: 'scene - Kopie.blend'
# www.blender.org
mtllib cube79.mtl
o Cube.081_Cube.154
v 9.214902 6.659958 -8.982932
v 9.589127 7.300225 -8.866125
v 7.755065 8.021054 -11.766649
v 8.129290 8.661321 -11.649842
v 6.830403 7.730069 -7.209224
v 7.204628 8.370336 -7.092417
v 5.370566 9.091165 -9.992941
v 5.744791 9.731432 -9.876134
vt 0.625000 0.000000
vt 0.375000 0.000000
vt 0.375000 0.250000
vt 0.625000 0.250000
vt 0.375000 0.500000
vt 0.625000 0.500000
vt 0.375000 0.750000
vt 0.625000 0.750000
vt 0.375000 1.000000
vt 0.125000 0.500000
vt 0.125000 0.750000
vt 0.875000 0.500000
vt 0.625000 1.000000
vt 0.875000 0.750000
vn 0.7549 -0.3388 -0.5615
vn -0.4262 0.3974 -0.8127
vn -0.7549 0.3388 0.5615
vn 0.4262 -0.3974 0.8127
vn -0.4985 -0.8528 -0.1556
vn 0.4985 0.8528 0.1556
usemtl None
s off
f 2/1/1 1/2/1 3/3/1
f 4/4/2 3/3/2 7/5/2
f 8/6/3 7/5/3 5/7/3
f 6/8/4 5/7/4 1/9/4
f 7/5/5 3/10/5 1/11/5
f 4/12/6 8/6/6 6/8/6
f 2/1/1 3/3/1 4/4/1
f 4/4/2 7/5/2 8/6/2
f 8/6/3 5/7/3 6/8/3
f 6/8/4 1/9/4 2/13/4
f 7/5/5 1/11/5 5/7/5
f 4/12/6 6/8/6 2/14/6
