# Blender v2.82 (sub 7) OBJ File: 'scene - Kopie.blend'
# www.blender.org
mtllib cube05.mtl
o Cube.027_Cube.090
v -6.131088 10.924084 -18.707098
v -6.131088 15.380316 -18.707098
v -5.054471 10.924084 -18.722307
v -5.054471 15.380316 -18.722307
v -6.099694 10.924084 -16.484861
v -6.099694 15.380316 -16.484861
v -5.023077 10.924084 -16.500071
v -5.023077 15.380316 -16.500071
vt 0.625000 0.000000
vt 0.375000 0.250000
vt 0.375000 0.000000
vt 0.625000 0.250000
vt 0.375000 0.500000
vt 0.625000 0.500000
vt 0.375000 0.750000
vt 0.625000 0.750000
vt 0.375000 1.000000
vt 0.125000 0.750000
vt 0.125000 0.500000
vt 0.875000 0.500000
vt 0.625000 1.000000
vt 0.875000 0.750000
vn -0.0141 0.0000 -0.9999
vn 0.9999 0.0000 -0.0141
vn 0.0141 0.0000 0.9999
vn -0.9999 0.0000 0.0141
vn 0.0000 -1.0000 0.0000
vn 0.0000 1.0000 -0.0000
usemtl None
s off
f 2/1/1 3/2/1 1/3/1
f 4/4/2 7/5/2 3/2/2
f 8/6/3 5/7/3 7/5/3
f 6/8/4 1/9/4 5/7/4
f 7/5/5 1/10/5 3/11/5
f 4/12/6 6/8/6 8/6/6
f 2/1/1 4/4/1 3/2/1
f 4/4/2 8/6/2 7/5/2
f 8/6/3 6/8/3 5/7/3
f 6/8/4 2/13/4 1/9/4
f 7/5/5 5/7/5 1/10/5
f 4/12/6 2/14/6 6/8/6
