# Blender v2.82 (sub 7) OBJ File: 'scene - Kopie.blend'
# www.blender.org
mtllib cube59.mtl
o Cube.009_Cube.051
v 5.319061 7.805364 -10.126918
v 5.319061 14.994624 -10.126918
v 6.223518 7.805364 -10.531921
v 6.223518 14.994624 -10.531921
v 6.993490 7.805364 -6.387566
v 6.993490 14.994624 -6.387566
v 7.897947 7.805364 -6.792569
v 7.897947 14.994624 -6.792569
vt 0.625000 0.000000
vt 0.375000 0.250000
vt 0.375000 0.000000
vt 0.625000 0.250000
vt 0.375000 0.500000
vt 0.625000 0.500000
vt 0.375000 0.750000
vt 0.625000 0.750000
vt 0.375000 1.000000
vt 0.125000 0.750000
vt 0.125000 0.500000
vt 0.875000 0.500000
vt 0.625000 1.000000
vt 0.875000 0.750000
vn -0.4087 0.0000 -0.9127
vn 0.9127 0.0000 -0.4087
vn 0.4087 0.0000 0.9127
vn -0.9127 0.0000 0.4087
vn 0.0000 -1.0000 -0.0000
vn 0.0000 1.0000 0.0000
usemtl None
s off
f 2/1/1 3/2/1 1/3/1
f 4/4/2 7/5/2 3/2/2
f 8/6/3 5/7/3 7/5/3
f 6/8/4 1/9/4 5/7/4
f 7/5/5 1/10/5 3/11/5
f 4/12/6 6/8/6 8/6/6
f 2/1/1 4/4/1 3/2/1
f 4/4/2 8/6/2 7/5/2
f 8/6/3 6/8/3 5/7/3
f 6/8/4 2/13/4 1/9/4
f 7/5/5 5/7/5 1/10/5
f 4/12/6 2/14/6 6/8/6
