# Blender v2.82 (sub 7) OBJ File: 'scene - Kopie.blend'
# www.blender.org
mtllib cube21.mtl
o Cube.014_Cube.059
v 4.150699 9.168604 -13.982172
v 4.150699 15.324852 -13.982172
v 4.657928 9.168604 -15.130902
v 4.657928 15.324852 -15.130902
v 6.361889 9.168604 -13.005805
v 6.361889 15.324852 -13.005805
v 6.869119 9.168604 -14.154535
v 6.869119 15.324852 -14.154535
vt 0.625000 0.000000
vt 0.375000 0.250000
vt 0.375000 0.000000
vt 0.625000 0.250000
vt 0.375000 0.500000
vt 0.625000 0.500000
vt 0.375000 0.750000
vt 0.625000 0.750000
vt 0.375000 1.000000
vt 0.125000 0.750000
vt 0.125000 0.500000
vt 0.875000 0.500000
vt 0.625000 1.000000
vt 0.875000 0.750000
vn -0.9148 0.0000 -0.4039
vn 0.4039 0.0000 -0.9148
vn 0.9148 0.0000 0.4039
vn -0.4039 0.0000 0.9148
vn 0.0000 -1.0000 0.0000
vn 0.0000 1.0000 -0.0000
usemtl None
s off
f 2/1/1 3/2/1 1/3/1
f 4/4/2 7/5/2 3/2/2
f 8/6/3 5/7/3 7/5/3
f 6/8/4 1/9/4 5/7/4
f 7/5/5 1/10/5 3/11/5
f 4/12/6 6/8/6 8/6/6
f 2/1/1 4/4/1 3/2/1
f 4/4/2 8/6/2 7/5/2
f 8/6/3 6/8/3 5/7/3
f 6/8/4 2/13/4 1/9/4
f 7/5/5 5/7/5 1/10/5
f 4/12/6 2/14/6 6/8/6
