# Blender v2.82 (sub 7) OBJ File: 'scene - Kopie.blend'
# www.blender.org
mtllib cube49.mtl
o Cube.053_Cube.124
v -7.970404 14.594427 29.884201
v -7.970404 26.295267 29.884201
v -8.402708 14.594427 28.992470
v -8.402708 26.295267 28.992470
v 4.812283 14.594427 23.687248
v 4.812283 26.295267 23.687248
v 4.379979 14.594427 22.795517
v 4.379979 26.295267 22.795517
vt 0.625000 0.000000
vt 0.375000 0.250000
vt 0.375000 0.000000
vt 0.625000 0.250000
vt 0.375000 0.500000
vt 0.625000 0.500000
vt 0.375000 0.750000
vt 0.625000 0.750000
vt 0.375000 1.000000
vt 0.125000 0.750000
vt 0.125000 0.500000
vt 0.875000 0.500000
vt 0.625000 1.000000
vt 0.875000 0.750000
vn -0.8998 0.0000 0.4362
vn -0.4362 0.0000 -0.8998
vn 0.8998 0.0000 -0.4362
vn 0.4362 0.0000 0.8998
vn 0.0000 -1.0000 0.0000
vn 0.0000 1.0000 0.0000
usemtl None
s off
f 2/1/1 3/2/1 1/3/1
f 4/4/2 7/5/2 3/2/2
f 8/6/3 5/7/3 7/5/3
f 6/8/4 1/9/4 5/7/4
f 7/5/5 1/10/5 3/11/5
f 4/12/6 6/8/6 8/6/6
f 2/1/1 4/4/1 3/2/1
f 4/4/2 8/6/2 7/5/2
f 8/6/3 6/8/3 5/7/3
f 6/8/4 2/13/4 1/9/4
f 7/5/5 5/7/5 1/10/5
f 4/12/6 2/14/6 6/8/6
