# Blender v2.82 (sub 7) OBJ File: 'scene - Kopie.blend'
# www.blender.org
mtllib cube07.mtl
o Cube.017_Cube.080
v -11.317965 10.924084 -21.662054
v -11.317965 15.380316 -21.662054
v -10.474978 10.924084 -22.183058
v -10.474978 15.380316 -22.183058
v -9.163945 10.924084 -18.176847
v -9.163945 15.380316 -18.176847
v -8.320959 10.924084 -18.697851
v -8.320959 15.380316 -18.697851
vt 0.625000 0.000000
vt 0.375000 0.250000
vt 0.375000 0.000000
vt 0.625000 0.250000
vt 0.375000 0.500000
vt 0.625000 0.500000
vt 0.375000 0.750000
vt 0.625000 0.750000
vt 0.375000 1.000000
vt 0.125000 0.750000
vt 0.125000 0.500000
vt 0.875000 0.500000
vt 0.625000 1.000000
vt 0.875000 0.750000
vn -0.5257 0.0000 -0.8506
vn 0.8506 0.0000 -0.5257
vn 0.5257 0.0000 0.8506
vn -0.8506 0.0000 0.5257
vn 0.0000 -1.0000 0.0000
vn 0.0000 1.0000 0.0000
usemtl None
s off
f 2/1/1 3/2/1 1/3/1
f 4/4/2 7/5/2 3/2/2
f 8/6/3 5/7/3 7/5/3
f 6/8/4 1/9/4 5/7/4
f 7/5/5 1/10/5 3/11/5
f 4/12/6 6/8/6 8/6/6
f 2/1/1 4/4/1 3/2/1
f 4/4/2 8/6/2 7/5/2
f 8/6/3 6/8/3 5/7/3
f 6/8/4 2/13/4 1/9/4
f 7/5/5 5/7/5 1/10/5
f 4/12/6 2/14/6 6/8/6
