# Blender v2.82 (sub 7) OBJ File: 'scene - Kopie.blend'
# www.blender.org
mtllib cube62.mtl
o Cube.005_Cube.047
v -1.601776 10.924084 -11.699495
v -1.601776 15.380316 -11.699495
v -1.052717 10.924084 -12.328358
v -1.052717 15.380316 -12.328358
v 0.906607 10.924084 -9.509426
v 0.906607 15.380316 -9.509426
v 1.455666 10.924084 -10.138288
v 1.455666 15.380316 -10.138288
vt 0.625000 0.000000
vt 0.375000 0.250000
vt 0.375000 0.000000
vt 0.625000 0.250000
vt 0.375000 0.500000
vt 0.625000 0.500000
vt 0.375000 0.750000
vt 0.625000 0.750000
vt 0.375000 1.000000
vt 0.125000 0.750000
vt 0.125000 0.500000
vt 0.875000 0.500000
vt 0.625000 1.000000
vt 0.875000 0.750000
vn -0.7533 0.0000 -0.6577
vn 0.6577 0.0000 -0.7533
vn 0.7533 0.0000 0.6577
vn -0.6577 0.0000 0.7533
vn 0.0000 -1.0000 0.0000
vn 0.0000 1.0000 0.0000
usemtl None
s off
f 2/1/1 3/2/1 1/3/1
f 4/4/2 7/5/2 3/2/2
f 8/6/3 5/7/3 7/5/3
f 6/8/4 1/9/4 5/7/4
f 7/5/5 1/10/5 3/11/5
f 4/12/6 6/8/6 8/6/6
f 2/1/1 4/4/1 3/2/1
f 4/4/2 8/6/2 7/5/2
f 8/6/3 6/8/3 5/7/3
f 6/8/4 2/13/4 1/9/4
f 7/5/5 5/7/5 1/10/5
f 4/12/6 2/14/6 6/8/6
