# Blender v2.82 (sub 7) OBJ File: 'Test.blend'
# www.blender.org
mtllib Floor01Obj.mtl
o Cube.004_Cube.005
v -6.603227 2.683941 2.956120
v -6.117407 3.240452 2.956120
v -6.603227 2.683941 -2.646448
v -6.117407 3.240452 -2.646448
v -2.049928 -1.290968 2.956120
v -1.564109 -0.734457 2.956120
v -2.049928 -1.290968 -2.646448
v -1.564109 -0.734457 -2.646448
vt 0.625000 0.000000
vt 0.375000 0.250000
vt 0.375000 0.000000
vt 0.625000 0.250000
vt 0.375000 0.500000
vt 0.625000 0.500000
vt 0.375000 0.750000
vt 0.625000 0.750000
vt 0.375000 1.000000
vt 0.125000 0.750000
vt 0.125000 0.500000
vt 0.875000 0.500000
vt 0.625000 1.000000
vt 0.875000 0.750000
vn -0.7533 0.6576 0.0000
vn 0.0000 0.0000 -1.0000
vn 0.7533 -0.6576 0.0000
vn 0.0000 0.0000 1.0000
vn -0.6576 -0.7533 0.0000
vn 0.6576 0.7533 0.0000
usemtl white
s off
f 2/1/1 3/2/1 1/3/1
f 4/4/2 7/5/2 3/2/2
f 8/6/3 5/7/3 7/5/3
f 6/8/4 1/9/4 5/7/4
f 7/5/5 1/10/5 3/11/5
f 4/12/6 6/8/6 8/6/6
f 2/1/1 4/4/1 3/2/1
f 4/4/2 8/6/2 7/5/2
f 8/6/3 6/8/3 5/7/3
f 6/8/4 2/13/4 1/9/4
f 7/5/5 5/7/5 1/10/5
f 4/12/6 2/14/6 6/8/6
