# Blender v2.82 (sub 7) OBJ File: 'scene - Kopie.blend'
# www.blender.org
mtllib Path02.mtl
o OneWayPath_Plane
v -7.471810 15.387074 33.126942
v 2.310416 15.374762 33.404713
v 10.941090 8.433238 -0.676286
v 14.480229 8.433238 -0.676286
v 8.820971 8.821217 5.343447
v 11.987662 11.204866 11.363180
v 11.388854 11.528492 17.382914
v 4.451642 13.764815 23.402647
v 8.304300 13.764815 23.402647
v 13.781252 11.528492 17.382914
v 14.537355 11.204866 11.363180
v 11.616976 8.821217 5.343447
v 10.748539 10.317973 8.353313
v 13.536138 10.317973 8.353313
v 12.610545 9.527058 6.848381
v 9.706779 9.527058 6.848381
v 11.563204 10.822813 9.858247
v 14.186205 10.822813 9.858247
v 12.087096 11.645458 14.373047
v 14.479494 11.645458 14.373047
v 14.544550 11.527149 12.868114
v 12.152153 11.527149 12.868114
v 11.868830 11.615777 15.877980
v 14.261229 11.615777 15.877980
v 9.420774 11.737418 20.392780
v 12.185026 11.737418 20.392780
v 13.231791 11.295614 18.887848
v 10.582716 11.295614 18.887848
v 7.717828 12.882988 21.897713
v 10.661346 12.882988 21.897713
v 12.088590 8.433238 2.333581
v 7.805612 8.433238 2.333581
v 7.706371 8.567291 3.884469
v 11.570457 8.567291 3.884469
v 13.713245 8.433238 0.828648
v 9.061658 8.433238 0.828648
v 6.487093 13.293233 22.650181
v 9.666187 13.293233 22.650181
v 11.937483 9.073637 6.095914
v 9.204502 9.073637 6.095914
v 8.263671 8.613549 4.590981
v 11.456176 8.613549 4.590981
v 11.670663 8.534506 3.086047
v 7.528045 8.534506 3.086047
v 8.288296 8.433238 1.581114
v 12.674593 8.433238 1.581114
v -1.510084 14.986723 26.412514
v 3.851415 14.986723 26.412514
v 5.871340 14.532060 24.907581
v 1.470778 14.532060 24.907581
v -4.490947 15.286272 27.917446
v 3.518043 15.275769 27.917446
v -4.449674 15.376572 35.483646
v 12.710659 8.433238 -0.676286
v 6.377971 13.764815 23.402647
v 12.781252 11.528492 17.382914
v 13.458708 11.204866 11.363180
v 10.218973 8.821217 5.343447
v 12.338537 10.317973 8.353313
v 11.354860 9.527058 6.848381
v 13.070904 10.822813 9.858247
v 13.479494 11.645458 14.373047
v 13.544550 11.527149 12.868114
v 13.261229 11.615777 15.877980
v 10.975263 11.737418 20.392780
v 12.103453 11.295614 18.887848
v 9.361950 12.882988 21.897713
v 9.947101 8.433238 2.333581
v 9.638414 8.567291 3.884469
v 11.387452 8.433238 0.828648
v 8.076640 13.293233 22.650181
v 10.698778 9.073637 6.095914
v 9.859923 8.613549 4.590981
v 9.599354 8.534506 3.086047
v 10.481444 8.433238 1.581114
v 0.964149 14.986723 26.412514
v 3.671060 14.532060 24.907581
v -1.742763 15.275769 27.917446
v 11.825874 8.433238 -0.676286
v 5.414806 13.764815 23.402647
v 12.281252 11.528492 17.382914
v 12.919384 11.204866 11.363180
v 9.519972 8.821217 5.343447
v 11.739737 10.317973 8.353313
v 10.727018 9.527058 6.848381
v 12.513252 10.822813 9.858247
v 12.979494 11.645458 14.373047
v 13.044550 11.527149 12.868114
v 12.761229 11.615777 15.877980
v 10.370381 11.737418 20.392780
v 11.539283 11.295614 18.887848
v 8.712251 12.882988 21.897713
v 8.876356 8.433238 2.333581
v 8.672393 8.567291 3.884469
v 10.224555 8.433238 0.828648
v 7.281867 13.293233 22.650181
v 10.079426 9.073637 6.095914
v 9.061797 8.613549 4.590981
v 8.563700 8.534506 3.086047
v 9.384871 8.433238 1.581114
v -0.272967 14.986723 26.412514
v 2.570919 14.532060 24.907581
v -3.116855 15.275769 27.917446
v -6.442615 15.376572 34.674789
v -1.372520 15.376572 34.984566
v 13.595445 8.433238 -0.676286
v 7.341136 13.764815 23.402647
v 13.281252 11.528492 17.382914
v 13.998032 11.204866 11.363180
v 10.917974 8.821217 5.343447
v 12.937338 10.317973 8.353313
v 11.982702 9.527058 6.848381
v 13.628554 10.822813 9.858247
v 13.979494 11.645458 14.373047
v 14.044550 11.527149 12.868114
v 13.761229 11.615777 15.877980
v 11.580145 11.737418 20.392780
v 12.667622 11.295614 18.887848
v 10.011648 12.882988 21.897713
v 11.017845 8.433238 2.333581
v 10.604435 8.567291 3.884469
v 12.550348 8.433238 0.828648
v 8.871414 13.293233 22.650181
v 11.318130 9.073637 6.095914
v 10.658050 8.613549 4.590981
v 10.635009 8.534506 3.086047
v 11.578019 8.433238 1.581114
v 2.201264 14.986723 26.412514
v 4.771200 14.532060 24.907581
v -0.368670 15.275769 27.917446
v -6.704186 15.405422 29.799385
v 3.778158 15.390908 29.427141
v -3.096218 15.394918 30.435631
v -4.538798 15.394918 30.435631
v -1.653638 15.394918 30.435631
v -7.621499 15.345976 30.740355
v 3.794631 15.331676 30.749914
v -3.772946 15.335472 31.694725
v -5.249770 15.335472 31.694725
v -2.296123 15.335472 31.694725
v 10.025581 11.384765 19.640314
v 12.708409 11.384765 19.640314
v 11.539358 11.384765 19.640314
v 10.954832 11.384765 19.640314
v 12.123883 11.384765 19.640314
v -7.471810 15.387074 35.126942
v 2.310416 15.374762 35.404716
v -4.449674 15.376572 37.483650
v -6.442615 15.376572 36.674789
v -1.372520 15.376572 36.984566
v -8.742785 15.345976 32.740356
v 3.794631 15.331676 32.749916
vt 0.616023 0.553521
vt 0.557369 0.469772
vt 0.616023 0.498058
vt 0.015715 0.709237
vt 0.161812 0.595667
vt 0.159913 0.711249
vt 0.907493 0.437563
vt 0.840706 0.441720
vt 0.907493 0.390172
vt 0.728345 0.628311
vt 0.813318 0.654743
vt 0.759933 0.654259
vt 0.726691 0.818473
vt 0.783955 0.838619
vt 0.714764 0.837992
vt 0.765829 0.684424
vt 0.812045 0.724098
vt 0.752773 0.723561
vt 0.805831 0.784597
vt 0.743684 0.784034
vt 0.821029 0.684925
vt 0.803926 0.524040
vt 0.779017 0.500373
vt 0.803926 0.482039
vt 0.752935 0.599534
vt 0.703443 0.599085
vt 0.840706 0.483721
vt 0.017079 0.324220
vt 0.160387 0.206662
vt 0.157769 0.327992
vt 0.013029 0.106223
vt 0.153324 0.015129
vt 0.152804 0.108089
vt 0.016010 0.458922
vt 0.162467 0.463038
vt 0.827431 0.921267
vt 0.726039 0.983064
vt 0.724916 0.920338
vt 0.791020 0.854979
vt 0.717739 0.877527
vt 0.712017 0.854262
vt 0.658269 0.541511
vt 0.658269 0.489211
vt 0.018373 0.597577
vt 0.787998 0.819029
vt 0.813361 0.878393
vt 0.712204 0.536940
vt 0.712204 0.485872
vt 0.010365 0.907096
vt 0.158944 0.817501
vt 0.160421 0.912272
vt 0.011508 0.817356
vt 0.009253 0.985034
vt 0.162955 0.990106
vt 0.236343 0.988749
vt 0.293954 0.915898
vt 0.297331 0.987391
vt 0.235731 0.818457
vt 0.290176 0.713044
vt 0.287561 0.818843
vt 0.235610 0.911732
vt 0.712204 0.434804
vt 0.658269 0.384611
vt 0.712204 0.383736
vt 0.526495 0.875793
vt 0.622401 0.919409
vt 0.519887 0.918479
vt 0.576382 0.836737
vt 0.633014 0.853546
vt 0.554012 0.852830
vt 0.619390 0.782907
vt 0.665385 0.817917
vt 0.604078 0.817361
vt 0.228156 0.597823
vt 0.293758 0.475176
vt 0.293222 0.600751
vt 0.658269 0.436911
vt 0.616023 0.387132
vt 0.622117 0.876660
vt 0.514063 0.981142
vt 0.226403 0.467642
vt 0.290563 0.345061
vt 0.215382 0.107661
vt 0.286257 0.017812
vt 0.283385 0.109946
vt 0.218237 0.332190
vt 0.290942 0.214281
vt 0.840706 0.399718
vt 0.803926 0.398036
vt 0.840706 0.357717
vt 0.653950 0.598636
vt 0.629359 0.627413
vt 0.604457 0.598188
vt 0.803926 0.440037
vt 0.779017 0.416370
vt 0.653162 0.653291
vt 0.710630 0.683924
vt 0.655431 0.683423
vt 0.634228 0.722486
vt 0.681537 0.783470
vt 0.693500 0.723023
vt 0.645573 0.837365
vt 0.706548 0.653775
vt 0.907493 0.342780
vt 0.907493 0.295388
vt 0.233531 0.709668
vt 0.616023 0.442595
vt 0.557369 0.385374
vt 0.557369 0.343175
vt 0.616023 0.331669
vt 0.378923 0.603964
vt 0.376301 0.715538
vt 0.840706 0.282752
vt 0.907493 0.215033
vt 0.541025 0.626612
vt 0.560936 0.652455
vt 0.517473 0.816576
vt 0.507191 0.836110
vt 0.561390 0.682571
vt 0.536114 0.721596
vt 0.518401 0.781991
vt 0.779017 0.341406
vt 0.803926 0.323072
vt 0.516123 0.597387
vt 0.373777 0.216819
vt 0.377450 0.351252
vt 0.365089 0.019510
vt 0.365071 0.113478
vt 0.378690 0.478804
vt 0.408075 0.980181
vt 0.417372 0.917550
vt 0.475009 0.852114
vt 0.430873 0.874926
vt 0.658269 0.332312
vt 0.712204 0.332668
vt 0.381665 0.819375
vt 0.384130 0.914583
vt 0.393453 0.990974
vt 0.620051 0.982103
vt 0.220566 0.013758
vt 0.220239 0.209115
vt 0.678852 0.627862
vt 0.779017 0.458372
vt 0.557369 0.427573
vt 0.454813 0.427985
vt 0.439834 0.389436
vt 0.456470 0.357570
vt 0.458127 0.287154
vt 0.438144 0.217260
vt 0.452795 0.173866
vt 0.441452 0.320652
vt 0.441729 0.718238
vt 0.438216 0.458219
vt 0.457168 0.647819
vt 0.472285 0.472492
vt 0.479274 0.325861
vt 0.475778 0.230692
vt 0.464734 0.181310
vt 1.000000 0.123428
vt 1.000000 0.001824
vt 1.000000 0.027546
vt 0.018188 0.203636
vt 0.486459 0.472851
vt 0.478908 0.181669
vt 0.489952 0.231050
vt 0.471343 0.648178
vt 0.493448 0.326220
vt 0.455903 0.718597
vt 0.557369 0.511970
vt 0.777838 0.628759
vt 0.779017 0.542375
vt 0.012001 0.013587
vt 0.832027 0.984025
vt 0.425444 0.717041
vt 1.000000 0.053269
vt 1.000000 0.078991
vt 0.468227 0.120761
vn 0.0000 1.0000 0.0000
vn 0.0000 0.8909 -0.4542
vn 0.0000 0.9882 0.1529
vn 0.0000 0.9778 -0.2094
vn 0.0000 0.9481 -0.3180
vn 0.0000 0.8852 -0.4652
vn 0.0000 0.9693 -0.2461
vn 0.0000 0.9998 0.0197
vn 0.0000 0.9969 -0.0784
vn 0.0000 0.9983 0.0579
vn 0.0000 0.7957 -0.6057
vn 0.0000 0.9931 -0.1177
vn 0.0000 0.8780 -0.4787
vn 0.0000 0.9911 -0.1334
vn 0.0000 0.9979 -0.0653
vn 0.0000 0.8473 -0.5310
vn 0.0000 0.8565 -0.5161
vn 0.0000 0.9640 -0.2660
vn 0.0000 0.9992 -0.0410
vn 0.0000 0.9821 -0.1886
vn 0.0000 0.9573 -0.2892
vn -0.0089 0.9986 -0.0518
vn 0.0000 0.9989 -0.0473
vn 0.0075 0.9835 -0.1809
vn 0.0174 0.9989 -0.0428
vn 0.0000 0.9989 0.0472
vn -0.0151 0.9987 0.0484
vn 0.0086 0.9986 0.0515
vn -0.0043 0.9999 -0.0113
vn 0.0048 0.9999 -0.0119
vn 0.0398 0.9990 -0.0197
vn 0.0000 0.9999 -0.0108
vn 0.0000 0.0000 1.0000
vn 0.0000 0.9055 -0.4244
vn -0.2648 0.9643 0.0000
vn 0.0102 0.9999 0.0000
vn 0.0005 1.0000 0.0000
vn 0.0290 0.9996 0.0000
vn 0.0000 0.9971 -0.0760
vn 0.0076 0.9990 -0.0430
vn -0.0077 0.9991 0.0428
vn 0.0090 0.9990 0.0446
vn -0.0021 0.9998 -0.0174
vn 0.0086 0.9999 -0.0104
vn -0.0019 0.9999 -0.0119
vn -0.0158 0.9998 -0.0088
usemtl Floor2
s off
f 35/1/1 106/2/1 122/3/1
f 49/4/2 107/5/2 129/6/2
f 27/7/3 108/8/3 118/9/3
f 115/10/4 11/11/4 109/12/4
f 124/13/5 12/14/5 110/15/5
f 113/16/5 14/17/5 111/18/5
f 111/18/6 15/19/6 112/20/6
f 109/12/7 18/21/7 113/16/7
f 24/22/8 114/23/8 116/24/8
f 20/25/9 115/10/9 114/26/9
f 10/27/10 116/24/10 108/8/10
f 30/28/11 117/29/11 119/30/11
f 142/31/12 118/32/12 145/33/12
f 38/34/13 119/30/13 123/35/13
f 43/36/14 120/37/14 126/38/14
f 42/39/15 121/40/15 125/41/15
f 46/42/1 122/3/1 127/43/1
f 9/44/16 123/35/16 107/5/16
f 112/20/17 39/45/17 124/13/17
f 110/15/18 42/39/18 125/41/18
f 34/46/19 126/38/19 121/40/19
f 31/47/1 127/43/1 120/48/1
f 52/49/20 128/50/20 130/51/20
f 48/52/21 129/6/21 128/50/21
f 132/53/22 130/51/22 135/54/22
f 133/55/23 103/56/23 134/57/23
f 76/58/21 102/59/21 101/60/21
f 78/61/20 101/60/20 103/56/20
f 68/62/1 100/63/1 93/64/1
f 94/65/19 74/66/19 99/67/19
f 83/68/18 73/69/18 98/70/18
f 85/71/17 72/72/17 97/73/17
f 55/74/16 96/75/16 80/76/16
f 75/77/1 95/78/1 100/63/1
f 98/70/15 69/79/15 94/65/15
f 74/66/14 93/80/14 99/67/14
f 71/81/13 92/82/13 96/75/13
f 143/83/12 91/84/12 144/85/12
f 67/86/11 90/87/11 92/82/11
f 56/88/10 89/89/10 81/90/10
f 62/91/9 88/92/9 87/93/9
f 64/94/8 87/95/8 89/89/8
f 82/96/7 61/97/7 86/98/7
f 84/99/6 60/100/6 85/71/6
f 86/98/5 59/101/5 84/99/5
f 97/73/5 58/102/5 83/68/5
f 88/92/4 57/103/4 82/96/4
f 66/104/3 81/90/3 91/105/3
f 77/106/2 80/76/2 102/59/2
f 70/107/1 79/108/1 95/78/1
f 95/78/1 3/109/1 36/110/1
f 102/59/2 8/111/2 50/112/2
f 91/105/3 7/113/3 28/114/3
f 22/115/4 82/96/4 6/116/4
f 40/117/5 83/68/5 5/118/5
f 17/119/5 84/99/5 13/120/5
f 13/120/6 85/71/6 16/121/6
f 6/116/7 86/98/7 17/119/7
f 89/89/8 19/122/8 23/123/8
f 87/93/9 22/115/9 19/124/9
f 81/90/10 23/123/10 7/113/10
f 92/82/11 25/125/11 29/126/11
f 144/85/12 28/127/12 141/128/12
f 96/75/13 29/126/13 37/129/13
f 99/67/14 32/130/14 44/131/14
f 41/132/15 94/65/15 33/133/15
f 100/63/1 36/110/1 45/134/1
f 80/76/16 37/129/16 8/111/16
f 16/121/17 97/73/17 40/117/17
f 5/118/18 98/70/18 41/132/18
f 33/133/19 99/67/19 44/131/19
f 93/64/1 45/134/1 32/135/1
f 103/56/24 47/136/24 51/137/24
f 101/60/21 50/112/21 47/136/21
f 134/57/25 51/137/25 131/138/25
f 135/54/23 78/61/23 133/55/23
f 128/50/21 77/106/21 76/58/21
f 130/51/20 76/58/20 78/61/20
f 120/48/1 75/77/1 68/62/1
f 69/79/19 126/38/19 74/66/19
f 58/102/18 125/41/18 73/69/18
f 60/100/17 124/13/17 72/72/17
f 107/5/16 71/81/16 55/74/16
f 127/43/1 70/107/1 75/77/1
f 73/69/15 121/40/15 69/79/15
f 126/38/14 68/139/14 74/66/14
f 123/35/13 67/86/13 71/81/13
f 145/33/12 66/140/12 143/83/12
f 119/30/11 65/141/11 67/86/11
f 108/8/10 64/94/10 56/88/10
f 114/26/9 63/142/9 62/91/9
f 116/24/8 62/143/8 64/94/8
f 57/103/7 113/16/7 61/97/7
f 59/101/6 112/20/6 60/100/6
f 61/97/5 111/18/5 59/101/5
f 72/72/5 110/15/5 58/102/5
f 63/142/4 109/12/4 57/103/4
f 118/9/3 56/88/3 66/104/3
f 129/6/2 55/74/2 77/106/2
f 122/3/1 54/144/1 70/107/1
f 140/145/26 133/146/26 138/147/26
f 139/148/27 131/149/27 136/150/27
f 138/147/26 134/151/26 139/148/26
f 137/152/28 135/153/28 140/145/28
f 2/154/29 140/145/29 105/155/29
f 53/156/30 139/148/30 104/157/30
f 104/157/31 136/150/31 1/158/31
f 53/156/32 140/145/32 138/147/32
f 6/159/33 11/160/33 109/161/33
f 117/29/34 143/83/34 65/141/34
f 90/87/34 141/128/34 25/125/34
f 65/141/34 144/85/34 90/87/34
f 26/162/34 145/33/34 117/29/34
f 53/156/1 150/163/1 105/155/1
f 136/150/35 146/164/35 1/158/35
f 104/157/36 146/164/36 149/165/36
f 105/155/37 147/166/37 2/154/37
f 53/156/1 149/165/1 148/167/1
f 2/154/38 152/168/38 137/152/38
f 35/1/1 4/169/1 106/2/1
f 49/4/2 9/44/2 107/5/2
f 27/7/3 10/27/3 108/8/3
f 115/10/4 21/170/4 11/11/4
f 124/13/5 39/45/5 12/14/5
f 113/16/5 18/21/5 14/17/5
f 111/18/6 14/17/6 15/19/6
f 109/12/7 11/11/7 18/21/7
f 24/22/8 20/171/8 114/23/8
f 20/25/9 21/170/9 115/10/9
f 10/27/10 24/22/10 116/24/10
f 30/28/11 26/162/11 117/29/11
f 142/31/12 27/172/12 118/32/12
f 38/34/13 30/28/13 119/30/13
f 43/36/14 31/173/14 120/37/14
f 42/39/15 34/46/15 121/40/15
f 46/42/1 35/1/1 122/3/1
f 9/44/16 38/34/16 123/35/16
f 112/20/17 15/19/17 39/45/17
f 110/15/18 12/14/18 42/39/18
f 34/46/19 43/36/19 126/38/19
f 31/47/1 46/42/1 127/43/1
f 52/49/20 48/52/20 128/50/20
f 48/52/21 49/4/21 129/6/21
f 132/53/39 52/49/39 130/51/39
f 133/55/23 78/61/23 103/56/23
f 76/58/21 77/106/21 102/59/21
f 78/61/20 76/58/20 101/60/20
f 68/62/1 75/77/1 100/63/1
f 94/65/19 69/79/19 74/66/19
f 83/68/18 58/102/18 73/69/18
f 85/71/17 60/100/17 72/72/17
f 55/74/16 71/81/16 96/75/16
f 75/77/1 70/107/1 95/78/1
f 98/70/15 73/69/15 69/79/15
f 74/66/14 68/139/14 93/80/14
f 71/81/13 67/86/13 92/82/13
f 143/83/12 66/140/12 91/84/12
f 67/86/11 65/141/11 90/87/11
f 56/88/10 64/94/10 89/89/10
f 62/91/9 63/142/9 88/92/9
f 64/94/8 62/143/8 87/95/8
f 82/96/7 57/103/7 61/97/7
f 84/99/6 59/101/6 60/100/6
f 86/98/5 61/97/5 59/101/5
f 97/73/5 72/72/5 58/102/5
f 88/92/4 63/142/4 57/103/4
f 66/104/3 56/88/3 81/90/3
f 77/106/2 55/74/2 80/76/2
f 70/107/1 54/144/1 79/108/1
f 95/78/1 79/108/1 3/109/1
f 102/59/2 80/76/2 8/111/2
f 91/105/3 81/90/3 7/113/3
f 22/115/4 88/92/4 82/96/4
f 40/117/5 97/73/5 83/68/5
f 17/119/5 86/98/5 84/99/5
f 13/120/6 84/99/6 85/71/6
f 6/116/7 82/96/7 86/98/7
f 89/89/8 87/95/8 19/122/8
f 87/93/9 88/92/9 22/115/9
f 81/90/10 89/89/10 23/123/10
f 92/82/11 90/87/11 25/125/11
f 144/85/12 91/84/12 28/127/12
f 96/75/13 92/82/13 29/126/13
f 99/67/14 93/80/14 32/130/14
f 41/132/15 98/70/15 94/65/15
f 100/63/1 95/78/1 36/110/1
f 80/76/16 96/75/16 37/129/16
f 16/121/17 85/71/17 97/73/17
f 5/118/18 83/68/18 98/70/18
f 33/133/19 94/65/19 99/67/19
f 93/64/1 100/63/1 45/134/1
f 103/56/20 101/60/20 47/136/20
f 101/60/21 102/59/21 50/112/21
f 134/57/40 103/56/40 51/137/40
f 135/54/23 130/51/23 78/61/23
f 128/50/21 129/6/21 77/106/21
f 130/51/20 128/50/20 76/58/20
f 120/48/1 127/43/1 75/77/1
f 69/79/19 121/40/19 126/38/19
f 58/102/18 110/15/18 125/41/18
f 60/100/17 112/20/17 124/13/17
f 107/5/16 123/35/16 71/81/16
f 127/43/1 122/3/1 70/107/1
f 73/69/15 125/41/15 121/40/15
f 126/38/14 120/37/14 68/139/14
f 123/35/13 119/30/13 67/86/13
f 145/33/12 118/32/12 66/140/12
f 119/30/11 117/29/11 65/141/11
f 108/8/10 116/24/10 64/94/10
f 114/26/9 115/10/9 63/142/9
f 116/24/8 114/23/8 62/143/8
f 57/103/7 109/12/7 113/16/7
f 59/101/6 111/18/6 112/20/6
f 61/97/5 113/16/5 111/18/5
f 72/72/5 124/13/5 110/15/5
f 63/142/4 115/10/4 109/12/4
f 118/9/3 108/8/3 56/88/3
f 129/6/2 107/5/2 55/74/2
f 122/3/1 106/2/1 54/144/1
f 140/145/26 135/153/26 133/146/26
f 139/148/41 134/151/41 131/149/41
f 138/147/26 133/146/26 134/151/26
f 137/152/42 132/174/42 135/153/42
f 2/154/43 137/152/43 140/145/43
f 53/156/32 138/147/32 139/148/32
f 104/157/44 139/148/44 136/150/44
f 53/156/45 105/155/45 140/145/45
f 109/161/33 57/175/33 82/176/33
f 109/161/33 82/176/33 6/159/33
f 117/29/34 145/33/34 143/83/34
f 90/87/34 144/85/34 141/128/34
f 65/141/34 143/83/34 144/85/34
f 26/162/34 142/31/34 145/33/34
f 53/156/1 148/167/1 150/163/1
f 136/150/46 151/177/46 146/164/46
f 104/157/36 1/158/36 146/164/36
f 105/155/37 150/163/37 147/166/37
f 53/156/1 104/157/1 149/165/1
f 2/154/38 147/166/38 152/168/38
