# Blender v2.82 (sub 7) OBJ File: 'scene - Kopie.blend'
# www.blender.org
mtllib Path01.mtl
o EntrancewAY_Plane.004
v -8.748008 12.198423 -17.640541
v 2.623512 10.818411 -13.227057
v -8.972842 12.285652 -15.067701
v 3.438281 10.499553 -10.700123
v -3.394861 11.898418 -16.187353
v -4.352349 12.050901 -13.470831
v -6.662595 12.168276 -14.269266
v -6.437762 12.081049 -16.842108
v 0.613763 11.348142 -14.130487
v -1.229197 11.773049 -12.311899
v -5.282639 12.022361 -16.442890
v -5.507472 12.109589 -13.870049
v -2.662257 11.938403 -13.136777
v -0.843213 11.606700 -15.392262
v 1.514864 11.128956 -13.301868
v 0.538403 11.390830 -10.463023
v -7.817718 12.226963 -14.668484
v -7.592885 12.139736 -17.241325
v -6.085034 12.138932 -14.069658
v -5.860201 12.051705 -16.642498
v -3.394861 11.898418 -19.187353
v 0.369233 11.435914 -10.566591
v 1.481667 11.137914 -13.320164
v -0.366369 11.620509 -11.320406
v 1.103186 11.238953 -13.599121
v 1.296542 11.187603 -13.441410
v 0.033673 11.524269 -10.846209
v 1.401328 11.159528 -13.362605
v 0.240587 11.469955 -10.663876
v -0.173249 11.577965 -11.077763
v 1.233026 11.204537 -13.487388
v -0.764580 11.697130 -11.818566
v 0.846819 11.298623 -13.853428
v 0.985864 11.267695 -13.724677
v -0.570491 11.660400 -11.563692
v 2.056806 10.981103 -13.125860
v 1.966905 10.955055 -10.212700
v 1.107943 11.217290 -10.218662
v 1.774741 11.058403 -13.189474
v 1.931445 11.015543 -13.147978
v 1.567438 11.078733 -10.157576
v 0.786339 11.315012 -10.326418
v 1.590933 11.108376 -13.261301
v 2.346100 10.898814 -13.140776
v 2.742212 10.710421 -10.365081
v 2.360681 10.830225 -10.274490
v 2.208918 10.939025 -13.121697
v 1.495637 11.134146 -13.312876
v 0.448743 11.414775 -10.510944
v 0.643701 11.358839 -10.406267
v 1.541641 11.121721 -13.288153
v 1.443484 11.148197 -13.340775
v 0.286393 11.457850 -10.631159
v 1.666680 11.087824 -13.228568
v 0.928815 11.271824 -10.279791
v 1.341872 11.146697 -10.178901
v 1.863928 11.034026 -13.160895
v 0.145850 11.494910 -10.734822
v 1.376162 11.166287 -13.382593
v 6.123995 9.695637 -13.324746
v 5.352239 9.837082 -10.837870
v 7.476630 8.931623 -11.318931
v 6.302111 9.329890 -9.782918
v 5.060478 9.956201 -10.990990
v 4.490307 10.271087 -13.845464
v 5.672828 9.694531 -10.642733
v 6.854456 9.369678 -12.651424
v 4.317894 10.222857 -11.064877
v 3.470262 10.576930 -13.698175
v 5.671630 9.871194 -13.566570
v 5.321080 9.850832 -10.855911
v 5.440951 9.798326 -10.790398
v 6.424756 9.573839 -13.105633
v 7.178345 9.175414 -12.084924
v 5.888322 9.592519 -10.453270
v 3.950853 10.435420 -13.828067
v 4.826278 10.044941 -11.075062
v 5.274831 9.871128 -10.881628
v 5.047824 10.086475 -13.778114
v 5.387630 9.970538 -13.683094
v 5.298232 9.860888 -10.868888
v 5.146480 9.923393 -10.957855
v 4.757150 10.184080 -13.837715
v 5.886189 9.789145 -13.464185
v 5.340809 9.841993 -10.843204
v 5.394310 9.818924 -10.817488
v 6.292216 9.629075 -13.222535
v 6.529379 9.528996 -13.006220
v 5.484241 9.779118 -10.764389
v 6.678153 9.459728 -12.879969
v 5.587381 9.733797 -10.706846
v 5.776542 9.645716 -10.554076
v 7.005491 9.291059 -12.441046
v 3.879709 10.363432 -10.884364
v 3.045349 10.698353 -13.464308
v 7.316701 9.064357 -11.698708
v 6.115368 9.474076 -10.240180
v 7.084761 8.512552 -7.759809
v 8.360299 8.173014 -10.041739
v 7.581851 7.820516 -6.693328
v 8.930118 7.536707 -9.419065
v 17.162842 7.201264 -6.047647
v 7.651201 8.191236 2.585393
v 10.663784 6.520224 7.990730
v 23.582073 5.904769 -3.040187
v -6.085034 12.138932 -14.069658
v -5.282640 12.022360 -19.442892
v -13.249913 12.198425 -17.511909
v -13.474748 12.285653 -15.530779
v -11.233714 12.198423 -17.949259
v -11.458549 12.285652 -14.739687
v -12.701404 12.285654 -14.816868
v -12.476569 12.198425 -18.000713
v -11.855142 12.198423 -18.103619
v -12.079978 12.285652 -14.643213
v -13.549914 12.198425 -17.031769
v -13.681699 12.285652 -16.275181
vt 0.436313 0.303701
vt 0.669767 0.211211
vt 0.414242 0.296872
vt 0.726586 0.598497
vt 0.357842 0.577590
vt 0.422886 0.654233
vt 0.751522 0.704871
vt 0.435355 0.707420
vt 0.447823 0.760608
vt 0.667972 0.474171
vt 0.400643 0.384667
vt 0.324690 0.465926
vt 0.732820 0.625091
vt 0.429121 0.680827
vt 0.821569 0.301670
vt 0.454717 0.334599
vt 0.454313 0.335494
vt 0.763990 0.758059
vt 0.460291 0.813795
vt 0.739054 0.651684
vt 0.815058 0.309902
vt 0.454101 0.336126
vt 0.453443 0.337873
vt 0.747250 0.361158
vt 0.439054 0.355273
vt 0.429986 0.362216
vt 0.784515 0.335831
vt 0.448473 0.345116
vt 0.446045 0.348309
vt 0.809474 0.317024
vt 0.452822 0.339779
vt 0.451656 0.341086
vt 0.765600 0.348243
vt 0.692685 0.402308
vt 0.421617 0.370029
vt 0.727141 0.374037
vt 0.453814 0.317294
vt 0.789466 0.246044
vt 0.450782 0.312681
vt 0.827011 0.280702
vt 0.456024 0.323401
vt 0.456353 0.327870
vt 0.820537 0.265089
vt 0.455333 0.319804
vt 0.824959 0.292844
vt 0.455975 0.331133
vt 0.455095 0.333393
vt 0.444516 0.307640
vt 0.738469 0.225260
vt 0.765366 0.235122
vt 0.818749 0.305622
vt 0.823056 0.297575
vt 0.813360 0.312197
vt 0.827890 0.286374
vt 0.826199 0.273516
vt 0.801745 0.323409
vt 0.572567 0.155919
vt 0.252026 0.189120
vt 0.245873 0.199591
vt 0.611332 0.119654
vt 0.431979 0.105448
vt 0.393253 0.117830
vt 0.567227 0.176865
vt 0.261561 0.251976
vt 0.287060 0.268724
vt 0.578306 0.145520
vt 0.299997 0.151898
vt 0.280560 0.162224
vt 0.589932 0.192270
vt 0.368487 0.289011
vt 0.629493 0.201672
vt 0.571325 0.157762
vt 0.243062 0.208523
vt 0.241763 0.220097
vt 0.573358 0.153747
vt 0.264797 0.174920
vt 0.256800 0.181636
vt 0.588356 0.136489
vt 0.353253 0.130029
vt 0.318357 0.142731
vt 0.322996 0.280980
vt 0.567324 0.164378
vt 0.245367 0.232935
vt 0.250972 0.243426
vt 0.570804 0.158745
vt 0.567105 0.167768
vt 0.571897 0.156791
vt 0.572717 0.155459
vt 0.574596 0.151752
vt 0.271959 0.169475
vt 0.575846 0.149881
vt 0.582272 0.141547
vt 0.595530 0.130923
vt 0.657843 0.104612
vt 0.552657 0.057546
vt 0.870660 0.043870
vt 0.611405 0.034911
vt 0.014563 0.650423
vt 0.611822 0.967283
vt 0.943724 0.944066
vt 0.985437 0.896713
vt 0.553462 0.917786
vt 0.567923 0.945657
vt 0.973183 0.868373
vt 0.930020 0.846591
vt 0.707732 0.985437
vt 0.869243 0.970172
vt 0.714118 0.545309
vt 0.813128 0.257375
vt 0.985437 0.014563
vt 0.079607 0.727066
vt 0.778181 0.985426
vn 0.2864 0.9577 0.0285
vn 0.0692 0.9972 -0.0278
vn 0.0606 0.9978 -0.0285
vn 0.1766 0.9843 -0.0023
vn 0.1268 0.9910 -0.0434
vn 0.2603 0.9655 0.0005
vn 0.2598 0.9657 0.0006
vn 0.2409 0.9706 -0.0029
vn 0.2573 0.9663 0.0004
vn 0.2590 0.9659 0.0005
vn 0.2545 0.9671 0.0022
vn 0.2170 0.9761 -0.0081
vn 0.2269 0.9739 -0.0111
vn 0.2621 0.9649 0.0167
vn 0.2610 0.9653 0.0051
vn 0.2623 0.9649 0.0095
vn 0.2605 0.9655 0.0017
vn 0.2843 0.9584 0.0245
vn 0.2660 0.9637 0.0226
vn 0.2601 0.9656 0.0006
vn 0.2606 0.9655 0.0006
vn 0.2593 0.9658 0.0005
vn 0.2605 0.9655 0.0034
vn 0.2615 0.9652 0.0071
vn 0.2583 0.9661 0.0004
vn 0.3391 0.9393 0.0516
vn 0.4485 0.8856 0.1206
vn 0.2924 0.9554 0.0425
vn 0.3771 0.9233 0.0729
vn 0.3135 0.9493 0.0218
vn 0.3126 0.9487 0.0469
vn 0.3431 0.9377 0.0541
vn 0.4093 0.9074 0.0960
vn 0.3306 0.9435 0.0204
vn 0.3099 0.9498 0.0441
vn 0.3110 0.9493 0.0462
vn 0.3086 0.9502 0.0432
vn 0.3356 0.9406 0.0505
vn 0.3399 0.9390 0.0521
vn 0.3472 0.9361 0.0568
vn 0.3716 0.9257 0.0700
vn 0.3783 0.9228 0.0733
vn 0.3031 0.9527 0.0225
vn 0.4250 0.8989 0.1062
vn 0.4989 0.8516 0.1607
vn 0.6059 0.7630 0.2252
vn 0.0655 0.9979 0.0000
vn 0.0237 0.9994 -0.0257
vn 0.0042 0.9994 -0.0335
vn 0.0069 0.9997 -0.0247
vn 0.0066 0.9996 -0.0267
vn 0.1117 0.9933 -0.0311
vn 0.2995 0.9538 0.0220
vn 0.0624 0.9975 -0.0340
vn 0.1555 0.9852 -0.0726
vn 0.0724 0.9969 -0.0304
vn 0.2582 0.9661 -0.0003
vn 0.2566 0.9665 -0.0009
vn 0.2179 0.9757 -0.0228
vn 0.2534 0.9673 -0.0022
vn 0.2556 0.9668 -0.0013
vn 0.2328 0.9724 -0.0148
vn 0.1976 0.9796 -0.0354
vn 0.2147 0.9764 -0.0228
vn 0.2977 0.9545 0.0161
vn 0.2871 0.9578 0.0132
vn 0.2872 0.9578 0.0147
vn 0.2878 0.9576 0.0115
vn 0.3039 0.9525 0.0202
vn 0.3047 0.9523 0.0179
vn 0.2574 0.9663 -0.0006
vn 0.2857 0.9583 0.0102
vn 0.2562 0.9666 -0.0011
vn 0.2865 0.9580 0.0119
vn 0.2867 0.9579 0.0140
vn 0.2547 0.9670 -0.0017
vn 0.3695 0.9272 0.0619
vn 0.4376 0.8933 0.1030
vn 0.3431 0.9386 0.0350
vn 0.3729 0.9253 0.0697
vn 0.2921 0.9558 0.0345
vn 0.3756 0.9251 0.0555
vn 0.3700 0.9266 0.0674
vn 0.3804 0.9225 0.0650
vn 0.2927 0.9553 0.0424
vn 0.3555 0.9337 0.0416
vn 0.3784 0.9244 0.0480
vn 0.3432 0.9385 0.0386
vn 0.3759 0.9247 0.0596
vn 0.3689 0.9272 0.0645
vn 0.3697 0.9266 0.0690
vn 0.3691 0.9269 0.0684
vn 0.3749 0.9244 0.0704
vn 0.2895 0.9567 0.0306
vn 0.4038 0.9116 0.0765
vn 0.4987 0.8533 0.1518
vn 0.6021 0.7682 0.2178
vn -0.0299 0.9984 -0.0474
vn -0.0036 0.9996 -0.0274
vn -0.0046 0.9996 -0.0277
vn -0.0040 0.9997 -0.0255
vn -0.2449 0.9574 -0.1530
usemtl Floor
s off
f 44/1/1 4/2/1 2/3/1
f 12/4/2 5/5/2 11/6/2
f 17/7/3 8/8/3 18/9/3
f 13/10/4 9/11/4 14/12/4
f 19/13/3 11/6/3 20/14/3
f 5/5/5 13/10/5 14/12/5
f 49/15/6 15/16/6 48/17/6
f 3/18/3 18/9/3 1/19/3
f 7/20/3 20/14/3 8/8/3
f 53/21/7 23/22/7 52/23/7
f 35/24/8 25/25/8 34/26/8
f 30/27/9 26/28/9 31/29/9
f 58/30/10 28/31/10 59/32/10
f 24/33/11 31/29/11 25/25/11
f 10/34/12 33/35/12 9/11/12
f 32/36/13 34/26/13 33/35/13
f 40/37/14 37/38/14 36/39/14
f 55/40/15 39/41/15 54/42/15
f 56/43/16 40/37/16 57/44/16
f 50/45/17 43/46/17 51/47/17
f 47/48/18 45/49/18 44/1/18
f 36/39/19 46/50/19 47/48/19
f 22/51/20 48/17/20 23/22/20
f 16/52/21 51/47/21 15/16/21
f 29/53/22 52/23/22 28/31/22
f 42/54/23 54/42/23 43/46/23
f 38/55/24 57/44/24 39/41/24
f 27/56/25 59/32/25 26/28/25
f 85/57/26 60/58/26 84/59/26
f 97/60/27 62/61/27 96/62/27
f 77/63/28 65/64/28 76/65/28
f 91/66/29 67/67/29 90/68/29
f 68/69/30 95/70/30 94/71/30
f 81/72/31 70/73/31 80/74/31
f 86/75/32 73/76/32 87/77/32
f 92/78/33 74/79/33 93/80/33
f 77/63/34 69/81/34 68/69/34
f 82/82/35 79/83/35 83/84/35
f 78/85/36 80/74/36 79/83/36
f 64/86/37 83/84/37 65/64/37
f 71/87/38 84/59/38 70/73/38
f 61/88/39 87/77/39 60/58/39
f 72/89/40 88/90/40 73/76/40
f 89/91/41 90/68/41 88/90/41
f 66/92/42 93/80/42 67/67/42
f 94/71/43 2/3/43 4/2/43
f 75/93/44 96/62/44 74/79/44
f 63/94/45 99/95/45 62/61/45
f 98/96/46 101/97/46 99/95/46
f 21/98/47 11/6/47 5/5/47
f 113/99/48 109/100/48 112/101/48
f 110/102/49 3/18/49 1/19/49
f 114/103/50 112/101/50 115/104/50
f 114/103/51 111/105/51 110/102/51
f 108/106/52 117/107/52 109/100/52
f 44/1/53 45/49/53 4/2/53
f 12/4/54 6/108/54 5/5/54
f 17/7/3 7/20/3 8/8/3
f 13/10/55 10/34/55 9/11/55
f 19/13/3 12/4/3 11/6/3
f 5/5/56 6/108/56 13/10/56
f 49/15/57 16/52/57 15/16/57
f 3/18/3 17/7/3 18/9/3
f 7/20/3 19/13/3 20/14/3
f 53/21/58 22/51/58 23/22/58
f 35/24/59 24/33/59 25/25/59
f 30/27/60 27/56/60 26/28/60
f 58/30/61 29/53/61 28/31/61
f 24/33/62 30/27/62 31/29/62
f 10/34/63 32/36/63 33/35/63
f 32/36/64 35/24/64 34/26/64
f 40/37/65 41/109/65 37/38/65
f 55/40/66 38/55/66 39/41/66
f 56/43/67 41/109/67 40/37/67
f 50/45/68 42/54/68 43/46/68
f 47/48/69 46/50/69 45/49/69
f 36/39/70 37/38/70 46/50/70
f 22/51/71 49/15/71 48/17/71
f 16/52/72 50/45/72 51/47/72
f 29/53/73 53/21/73 52/23/73
f 42/54/74 55/40/74 54/42/74
f 38/55/75 56/43/75 57/44/75
f 27/56/76 58/30/76 59/32/76
f 85/57/77 61/88/77 60/58/77
f 97/60/78 63/94/78 62/61/78
f 77/63/79 64/86/79 65/64/79
f 91/66/80 66/92/80 67/67/80
f 68/69/81 69/81/81 95/70/81
f 81/72/82 71/87/82 70/73/82
f 86/75/83 72/89/83 73/76/83
f 92/78/84 75/93/84 74/79/84
f 77/63/85 76/65/85 69/81/85
f 82/82/86 78/85/86 79/83/86
f 78/85/87 81/72/87 80/74/87
f 64/86/88 82/82/88 83/84/88
f 71/87/89 85/57/89 84/59/89
f 61/88/90 86/75/90 87/77/90
f 72/89/91 89/91/91 88/90/91
f 89/91/92 91/66/92 90/68/92
f 66/92/93 92/78/93 93/80/93
f 94/71/94 95/70/94 2/3/94
f 75/93/95 97/60/95 96/62/95
f 63/94/96 98/96/96 99/95/96
f 98/96/97 100/110/97 101/97/97
f 21/98/47 107/111/47 11/6/47
f 113/99/98 108/106/98 109/100/98
f 110/102/99 111/105/99 3/18/99
f 114/103/100 113/99/100 112/101/100
f 114/103/101 115/104/101 111/105/101
f 108/106/102 116/112/102 117/107/102
l 106 19
