# Blender v2.82 (sub 7) OBJ File: 'scene - Kopie.blend'
# www.blender.org
mtllib rails.mtl
o Cube.013_Cube.063
v -5.283149 11.974117 -19.691402
v -5.283149 11.805875 -19.691402
v -5.283149 12.091820 -31.225540
v -5.283149 11.923576 -31.225540
v -5.190194 11.974117 -19.691402
v -5.190194 11.805875 -19.691402
v -5.190194 12.091820 -31.225540
v -5.190194 11.923576 -31.225540
v -5.283149 12.091820 -25.458471
v -5.283149 11.923576 -25.458471
v -5.190194 12.091820 -25.458471
v -5.190194 11.923576 -25.458471
v -5.283149 12.091820 -22.574936
v -5.190194 11.923576 -22.574936
v -5.283149 11.923576 -22.574936
v -5.190194 12.091820 -22.574936
vt 0.780899 0.211853
vt 0.780899 0.005267
vt 0.672591 0.005267
vt 0.229593 0.787889
vt 0.443026 0.787889
vt 0.443026 0.581303
vt 0.611939 0.149794
vt 0.611939 0.356381
vt 0.666093 0.211853
vt 0.226363 0.005322
vt 0.226363 0.208874
vt 0.442979 0.208874
vt 0.226363 0.360098
vt 0.442979 0.360098
vt 0.830286 0.996901
vt 0.830286 0.790315
vt 0.671720 0.790315
vt 0.834241 0.784117
vt 0.834241 0.577531
vt 0.725933 0.577531
vt 0.448665 0.726394
vt 0.448665 0.932981
vt 0.556973 0.932981
vt 0.449477 0.149794
vt 0.449477 0.356381
vt 0.557785 0.356381
vt 0.835053 0.211853
vt 0.835053 0.005267
vt 0.889207 0.149794
vt 0.725933 0.784117
vt 0.671779 0.577531
vt 0.556973 0.726394
vt 0.611127 0.932981
vt 0.557785 0.149794
vt 0.672591 0.211853
vt 0.229593 0.581303
vt 0.666093 0.005267
vt 0.442979 0.005322
vt 0.671720 0.996901
vt 0.889207 0.356381
vt 0.671779 0.784117
vt 0.611127 0.726394
vn -1.0000 0.0000 0.0000
vn 0.0000 0.0000 -1.0000
vn 1.0000 0.0000 0.0000
vn 0.0000 0.0000 1.0000
vn 0.0000 0.9992 0.0408
vn 0.0000 -0.9992 -0.0408
vn 0.0000 -1.0000 0.0000
vn 0.0000 1.0000 0.0000
usemtl rail
s off
f 10/1/1 9/2/1 3/3/1
f 4/4/2 3/5/2 7/6/2
f 14/7/3 16/8/3 5/9/3
f 6/10/4 5/11/4 1/12/4
f 16/13/5 13/14/5 1/12/5
f 15/15/6 14/16/6 6/17/6
f 4/18/7 8/19/7 12/20/7
f 7/21/8 3/22/8 9/23/8
f 8/24/3 7/25/3 11/26/3
f 15/27/1 13/28/1 9/2/1
f 1/29/1 13/28/1 15/27/1
f 10/30/7 12/20/7 14/31/7
f 11/32/8 9/23/8 13/33/8
f 12/34/3 11/26/3 16/8/3
f 10/1/1 3/3/1 4/35/1
f 4/4/2 7/6/2 8/36/2
f 14/7/3 5/9/3 6/37/3
f 6/10/4 1/12/4 2/38/4
f 16/13/5 1/12/5 5/11/5
f 15/15/6 6/17/6 2/39/6
f 4/18/7 12/20/7 10/30/7
f 7/21/8 9/23/8 11/32/8
f 8/24/3 11/26/3 12/34/3
f 15/27/1 9/2/1 10/1/1
f 1/29/1 15/27/1 2/40/1
f 10/30/7 14/31/7 15/41/7
f 11/32/8 13/33/8 16/42/8
f 12/34/3 16/8/3 14/7/3
o Cube.014_Cube.064
v -4.052157 11.974117 -19.691402
v -4.052157 11.805875 -19.691402
v -4.052157 12.091820 -31.225540
v -4.052157 11.923576 -31.225540
v -3.959203 11.974117 -19.691402
v -3.959203 11.805875 -19.691402
v -3.959203 12.091820 -31.225540
v -3.959203 11.923576 -31.225540
v -4.052157 12.091820 -25.458471
v -4.052157 11.923576 -25.458471
v -3.959203 12.091820 -25.458471
v -3.959203 11.923576 -25.458471
v -4.052157 12.091820 -22.574936
v -3.959203 11.923576 -22.574936
v -4.052157 11.923576 -22.574936
v -3.959203 12.091820 -22.574936
vt 0.111557 0.577273
vt 0.111557 0.370686
vt 0.003249 0.370686
vt 0.229593 0.575105
vt 0.443026 0.575105
vt 0.443026 0.368519
vt 0.611939 0.511442
vt 0.611939 0.718029
vt 0.666093 0.573501
vt 0.003249 0.005322
vt 0.003249 0.208874
vt 0.219865 0.208874
vt 0.003249 0.360098
vt 0.219865 0.360098
vt 0.997621 0.571333
vt 0.997621 0.364746
vt 0.839056 0.364747
vt 0.834241 0.571333
vt 0.834241 0.364746
vt 0.725933 0.364747
vt 0.002437 0.730166
vt 0.002437 0.936753
vt 0.110745 0.936753
vt 0.449477 0.511442
vt 0.449477 0.718029
vt 0.557785 0.718029
vt 0.165711 0.577273
vt 0.165711 0.370686
vt 0.219865 0.515214
vt 0.725933 0.571333
vt 0.671779 0.364747
vt 0.110745 0.730166
vt 0.164899 0.936753
vt 0.557785 0.511442
vt 0.003249 0.577273
vt 0.229593 0.368519
vt 0.666093 0.366914
vt 0.219865 0.005322
vt 0.839056 0.571333
vt 0.219865 0.721801
vt 0.671779 0.571333
vt 0.164899 0.730166
vn -1.0000 0.0000 0.0000
vn 0.0000 0.0000 -1.0000
vn 1.0000 0.0000 0.0000
vn 0.0000 0.0000 1.0000
vn 0.0000 0.9992 0.0408
vn 0.0000 -0.9992 -0.0408
vn 0.0000 -1.0000 0.0000
vn 0.0000 1.0000 0.0000
usemtl rail
s off
f 26/43/9 25/44/9 19/45/9
f 20/46/10 19/47/10 23/48/10
f 30/49/11 32/50/11 21/51/11
f 22/52/12 21/53/12 17/54/12
f 32/55/13 29/56/13 17/54/13
f 31/57/14 30/58/14 22/59/14
f 20/60/15 24/61/15 28/62/15
f 23/63/16 19/64/16 25/65/16
f 24/66/11 23/67/11 27/68/11
f 31/69/9 29/70/9 25/44/9
f 17/71/9 29/70/9 31/69/9
f 26/72/15 28/62/15 30/73/15
f 27/74/16 25/65/16 29/75/16
f 28/76/11 27/68/11 32/50/11
f 26/43/9 19/45/9 20/77/9
f 20/46/10 23/48/10 24/78/10
f 30/49/11 21/51/11 22/79/11
f 22/52/12 17/54/12 18/80/12
f 32/55/13 17/54/13 21/53/13
f 31/57/14 22/59/14 18/81/14
f 20/60/15 28/62/15 26/72/15
f 23/63/16 25/65/16 27/74/16
f 24/66/11 27/68/11 28/76/11
f 31/69/9 25/44/9 26/43/9
f 17/71/9 31/69/9 18/82/9
f 26/72/15 30/73/15 31/83/15
f 27/74/16 29/75/16 32/84/16
f 28/76/11 32/50/11 30/49/11
