# Blender v2.79 (sub 0) OBJ File: 'szene.blend'
# www.blender.org
mtllib floor.mtl
o Plane
v -4.373279 0.021242 8.811090
v 4.398217 0.021242 8.811090
v -4.373279 0.021242 -4.661634
v 4.398217 0.021242 -4.661634
v -4.562353 -2.379230 0.105378
v 4.527558 -2.379230 0.105378
v -4.562353 3.632863 -6.712336
v 4.527558 3.632863 -6.712336
vt 0.562665 0.000000
vt 0.000000 1.000000
vt 0.000000 0.000000
vt 0.562665 1.000000
vt 1.000000 0.674690
vt 0.562665 0.000000
vt 1.000000 0.000000
vt 0.562665 0.674690
vn 0.0000 1.0000 0.0000
vn 0.0000 0.7500 0.6614
usemtl Material.002
s off
f 2/1/1 3/2/1 1/3/1
f 2/1/1 4/4/1 3/2/1
usemtl Material.001
f 6/5/2 7/6/2 5/7/2
f 6/5/2 8/8/2 7/6/2
