# Blender v2.82 (sub 7) OBJ File: 'scene - Kopie.blend'
# www.blender.org
mtllib Light01.mtl
o Cube
v -6.975144 14.121212 -13.786327
v -6.958688 14.137050 -14.057458
v -6.919546 14.581526 -14.029119
v -6.936002 14.565688 -13.757989
v -7.087917 14.364244 -13.915504
v -6.806773 14.338493 -13.899943
v -6.955573 14.343451 -13.772158
v -6.927773 14.573607 -13.893554
v -6.939117 14.359287 -14.043289
v -6.966916 14.129130 -13.921893
v -6.815996 14.262131 -13.859667
v -6.928504 14.116940 -13.783747
v -6.830255 14.203932 -13.829020
v -6.856643 14.155902 -13.803829
v -6.891144 14.125355 -13.787931
v -7.097140 14.287882 -13.875226
v -7.021783 14.125484 -13.788909
v -7.097098 14.228373 -13.843787
v -7.082763 14.176613 -13.816344
v -7.056316 14.140483 -13.797073
v -6.810536 14.267385 -13.949623
v -6.912048 14.132778 -14.054877
v -6.820587 14.213236 -13.988309
v -6.843408 14.168640 -14.021895
v -6.875525 14.140387 -14.045271
v -7.091680 14.293137 -13.965183
v -7.005327 14.141321 -14.060040
v -7.087430 14.237677 -14.003077
v -7.069528 14.189351 -14.034410
v -7.040697 14.155515 -14.054413
v -6.803010 14.409601 -13.850264
v -6.889362 14.561417 -13.755407
v -6.807259 14.465061 -13.812370
v -6.825162 14.513387 -13.781037
v -6.853993 14.547223 -13.761034
v -7.084153 14.435352 -13.865824
v -6.982641 14.569960 -13.760570
v -7.074102 14.489502 -13.827138
v -7.051281 14.534098 -13.793551
v -7.019165 14.562351 -13.770176
v -6.797550 14.414856 -13.940221
v -6.872906 14.577254 -14.026538
v -6.797591 14.474365 -13.971660
v -6.811927 14.526125 -13.999103
v -6.838374 14.562255 -14.018373
v -7.078693 14.440607 -13.955780
v -6.966185 14.585797 -14.031700
v -7.064435 14.498806 -13.986427
v -7.038046 14.546836 -14.011618
v -7.003546 14.577383 -14.027515
v -6.920276 14.124859 -13.919312
v -6.813266 14.264758 -13.904645
v -6.883335 14.132871 -13.916601
v -6.850026 14.162271 -13.912863
v -6.825421 14.208584 -13.908664
v -7.013556 14.133403 -13.924474
v -7.094410 14.290509 -13.920204
v -7.048506 14.147999 -13.925743
v -7.076145 14.182981 -13.925377
v -7.092265 14.233025 -13.923432
v -6.892477 14.355016 -14.040708
v -6.804043 14.341121 -13.944922
v -6.856949 14.351320 -14.031822
v -6.827667 14.347383 -14.010499
v -6.809089 14.343801 -13.979984
v -6.985756 14.363560 -14.045870
v -7.085187 14.366872 -13.960482
v -7.022121 14.366449 -14.040964
v -7.053787 14.368093 -14.023014
v -7.075933 14.368241 -13.994752
v -6.881134 14.569335 -13.890973
v -6.800280 14.412229 -13.895243
v -6.846183 14.554739 -13.889704
v -6.818544 14.519756 -13.890070
v -6.802425 14.469713 -13.892015
v -6.974413 14.577879 -13.896135
v -7.081423 14.437980 -13.910802
v -7.011355 14.569867 -13.898846
v -7.044664 14.540467 -13.902584
v -7.069269 14.494154 -13.906783
v -6.908933 14.339178 -13.769577
v -6.809503 14.335866 -13.854965
v -6.872568 14.336288 -13.774483
v -6.840903 14.334644 -13.792433
v -6.818757 14.334496 -13.820695
v -7.002213 14.347722 -13.774739
v -7.090647 14.361617 -13.870524
v -7.037740 14.351418 -13.783625
v -7.067022 14.355355 -13.804948
v -7.085600 14.358937 -13.835463
vt 0.541473 0.250000
vt 0.500000 0.375000
vt 0.500000 0.250000
vt 0.541473 0.500000
vt 0.500000 0.625000
vt 0.500000 0.500000
vt 0.541473 0.750000
vt 0.500000 0.875000
vt 0.500000 0.750000
vt 0.791473 0.625000
vt 0.750000 0.666473
vt 0.750000 0.625000
vt 0.708527 0.666473
vt 0.708527 0.625000
vt 0.500000 0.125000
vt 0.458527 0.250000
vt 0.458527 0.125000
vt 0.541473 0.625000
vt 0.541473 0.375000
vt 0.541473 0.125000
vt 0.541473 0.000000
vt 0.500000 0.000000
vt 0.791473 0.583527
vt 0.750000 0.583527
vt 0.708527 0.583527
vt 0.250000 0.625000
vt 0.208527 0.666473
vt 0.208527 0.625000
vt 0.291473 0.625000
vt 0.250000 0.666473
vt 0.458527 0.500000
vt 0.458527 0.375000
vt 0.458527 0.875000
vt 0.458527 0.750000
vt 0.291473 0.583527
vt 0.250000 0.583527
vt 0.458527 0.625000
vt 0.208527 0.583527
vt 0.458527 1.000000
vt 0.541473 0.875000
vt 0.500000 1.000000
vt 0.720621 0.133616
vt 0.784000 0.222882
vt 0.720621 0.222882
vt 0.784000 0.064817
vt 0.834714 0.222882
vt 0.265906 0.506492
vt 0.327445 0.722882
vt 0.265906 0.722882
vt 0.327445 0.467520
vt 0.394054 0.722882
vt 0.288596 0.133616
vt 0.354992 0.222882
vt 0.288596 0.222882
vt 0.354992 0.064817
vt 0.414296 0.222882
vt 0.665937 0.506492
vt 0.713037 0.722882
vt 0.665937 0.722882
vt 0.713037 0.467520
vt 0.774576 0.722882
vt 0.720621 0.312147
vt 0.634923 0.380947
vt 0.636431 0.312147
vt 0.784000 0.380947
vt 0.630628 0.439272
vt 0.886473 0.939272
vt 0.839373 0.722882
vt 0.886473 0.722882
vt 0.839373 0.978243
vt 0.777835 0.722882
vt 0.120216 0.133616
vt 0.205914 0.064817
vt 0.204406 0.133616
vt 0.056837 0.064817
vt 0.210209 0.006492
vt 0.550488 0.939272
vt 0.488950 0.722882
vt 0.550488 0.722882
vt 0.488950 0.978243
vt 0.422341 0.722882
vt 0.552241 0.312147
vt 0.485845 0.222882
vt 0.552241 0.222882
vt 0.485845 0.380947
vt 0.426541 0.222882
vt 0.662678 0.939272
vt 0.615579 0.722882
vt 0.662678 0.722882
vt 0.615579 0.978243
vt 0.554040 0.722882
vt 0.120216 0.312147
vt 0.056837 0.222882
vt 0.120216 0.222882
vt 0.056837 0.380947
vt 0.006123 0.222882
vt 0.001922 0.506492
vt 0.063461 0.722882
vt 0.001922 0.722882
vt 0.063461 0.467520
vt 0.130070 0.722882
vt 0.552241 0.133616
vt 0.634923 0.064817
vt 0.636431 0.133616
vt 0.485845 0.064817
vt 0.630628 0.006492
vt 0.998370 0.939272
vt 0.951271 0.722882
vt 0.998370 0.722882
vt 0.951271 0.978244
vt 0.889732 0.722882
vt 0.288596 0.312147
vt 0.205914 0.380947
vt 0.204406 0.312147
vt 0.354992 0.380947
vt 0.210209 0.439272
vt 0.133914 0.506492
vt 0.195453 0.722882
vt 0.133914 0.722882
vt 0.195453 0.467520
vt 0.262062 0.722882
vt 0.834714 0.439272
vt 0.265906 0.939272
vt 0.327445 0.978244
vt 0.394054 0.991929
vt 0.414296 0.439272
vt 0.665937 0.939272
vt 0.713037 0.978244
vt 0.774576 0.991929
vt 0.426541 0.439272
vt 0.886473 0.506492
vt 0.839373 0.467520
vt 0.777835 0.453835
vt 0.414296 0.006492
vt 0.550488 0.506492
vt 0.488950 0.467520
vt 0.422341 0.453835
vt 0.426541 0.006492
vt 0.662678 0.506492
vt 0.615579 0.467520
vt 0.554040 0.453835
vt 0.006123 0.006492
vt 0.001922 0.939272
vt 0.063461 0.978244
vt 0.130070 0.991929
vt 0.834714 0.006492
vt 0.998370 0.506492
vt 0.951271 0.467520
vt 0.889732 0.453835
vt 0.006123 0.439272
vt 0.133914 0.939272
vt 0.195453 0.978244
vt 0.262062 0.991929
vt 0.458527 0.000000
vt 0.791473 0.666473
vt 0.291473 0.666473
vt 0.541473 1.000000
vt 0.394054 0.453835
vt 0.774576 0.453835
vt 0.777835 0.991929
vt 0.422341 0.991929
vt 0.554040 0.991929
vt 0.130070 0.453835
vt 0.889732 0.991929
vt 0.262062 0.453835
vn -0.1795 -0.6486 -0.7396
vn 0.0605 0.0582 -0.9965
vn -0.0191 -0.6618 -0.7494
vn -0.0557 0.7579 -0.6500
vn 0.0875 0.9941 0.0634
vn 0.1046 0.7441 -0.6598
vn -0.1390 0.6777 0.7220
vn -0.0605 -0.0582 0.9965
vn 0.0191 0.6618 0.7494
vn -0.9978 0.0287 -0.0589
vn -0.9953 0.0847 0.0466
vn -0.9943 0.0911 -0.0550
vn -0.9913 0.1279 0.0316
vn -0.9869 0.1530 -0.0509
vn -0.0875 -0.9941 -0.0634
vn 0.1390 -0.6778 -0.7220
vn 0.0644 -0.9964 -0.0543
vn -0.0644 0.9964 0.0543
vn -0.0337 0.0665 -0.9972
vn -0.2374 -0.9688 -0.0710
vn -0.2629 -0.7287 0.6323
vn -0.1046 -0.7441 0.6598
vn -0.9885 0.0534 -0.1412
vn -0.9830 0.0965 -0.1561
vn -0.9811 0.1377 -0.1358
vn 0.9943 -0.0911 0.0550
vn 0.9811 -0.1377 0.1358
vn 0.9869 -0.1531 0.0509
vn 0.9978 -0.0287 0.0589
vn 0.9830 -0.0965 0.1561
vn 0.2628 0.7287 -0.6323
vn 0.1541 0.0493 -0.9868
vn 0.0336 -0.0665 0.9972
vn 0.1796 0.6486 0.7396
vn 0.9987 -0.0436 -0.0262
vn 0.9953 -0.0847 -0.0466
vn 0.2374 0.9688 0.0710
vn 0.9913 -0.1279 -0.0316
vn 0.0557 -0.7579 0.6500
vn -0.1541 -0.0493 0.9868
vn 0.9375 -0.3459 0.0367
vn 0.9153 -0.2622 0.3057
vn 0.7844 -0.6201 0.0114
vn 0.7591 -0.4481 0.4722
vn 0.4529 -0.8912 -0.0245
vn 0.4306 -0.6726 0.6018
vn -0.9830 -0.1700 -0.0696
vn -0.9435 -0.0582 -0.3261
vn -0.8802 -0.4676 -0.0807
vn -0.8202 -0.2459 -0.5164
vn -0.6014 -0.7946 -0.0829
vn -0.5344 -0.5061 -0.6769
vn 0.9376 -0.0607 -0.3424
vn 0.9473 -0.2314 -0.2214
vn 0.7340 -0.0213 -0.6788
vn 0.8136 -0.3956 -0.4260
vn 0.4252 0.0202 -0.9048
vn 0.5047 -0.6013 -0.6194
vn -0.8899 0.1066 -0.4435
vn -0.9153 0.2622 -0.3056
vn -0.6470 0.1051 -0.7552
vn -0.7591 0.4481 -0.4722
vn -0.3129 0.0878 -0.9457
vn -0.4306 0.6726 -0.6018
vn 0.9830 0.1700 0.0696
vn 0.9755 0.0890 -0.2010
vn 0.8802 0.4676 0.0807
vn 0.8748 0.2984 -0.3817
vn 0.6014 0.7946 0.0829
vn 0.6085 0.5774 -0.5442
vn -0.9375 0.3459 -0.0367
vn -0.9473 0.2314 0.2214
vn -0.7844 0.6201 -0.0114
vn -0.8136 0.3956 0.4260
vn -0.4529 0.8912 0.0246
vn -0.5047 0.6013 0.6194
vn 0.9885 -0.0534 0.1412
vn 0.8899 -0.1066 0.4435
vn 0.9435 0.0582 0.3261
vn 0.6470 -0.1051 0.7552
vn 0.8202 0.2459 0.5164
vn 0.3129 -0.0878 0.9457
vn 0.5344 0.5061 0.6769
vn -0.9987 0.0436 0.0262
vn -0.9376 0.0607 0.3424
vn -0.9755 -0.0890 0.2010
vn -0.7340 0.0213 0.6788
vn -0.8747 -0.2984 0.3818
vn -0.4252 -0.0202 0.9048
vn -0.6085 -0.5774 0.5442
usemtl Emit
s 1
f 27/1/1 9/2/2 2/3/3
f 47/4/4 8/5/5 3/6/6
f 37/7/7 7/8/8 4/9/9
f 57/10/10 87/11/11 5/12/12
f 5/12/12 36/13/13 77/14/14
f 10/15/15 22/16/16 51/17/17
f 76/18/18 4/9/9 8/5/5
f 66/19/19 3/6/6 9/2/2
f 56/20/20 2/3/3 10/15/15
f 17/21/21 10/15/15 1/22/22
f 26/23/23 5/12/12 67/24/24
f 67/24/24 77/14/14 46/25/25
f 6/26/26 11/27/27 52/28/28
f 72/29/29 82/30/30 6/26/26
f 9/2/2 42/31/31 61/32/32
f 4/9/9 81/33/33 32/34/34
f 41/35/35 6/26/26 62/36/36
f 3/6/6 71/37/37 42/31/31
f 62/36/36 52/28/28 21/38/38
f 8/5/5 32/34/34 71/37/37
f 2/3/3 61/32/32 22/16/16
f 7/8/8 12/39/39 81/33/33
f 86/40/40 1/41/22 7/8/8
f 11/42/27 55/43/41 52/44/28
f 13/45/42 54/46/43 55/43/41
f 14/47/44 53/48/45 54/49/43
f 15/50/46 51/51/17 53/48/45
f 26/52/23 60/53/47 57/54/10
f 28/55/48 59/56/49 60/53/47
f 29/57/50 58/58/51 59/59/49
f 30/60/52 56/61/20 58/58/51
f 21/62/38 65/63/53 62/64/36
f 23/65/54 64/66/55 65/63/53
f 24/67/56 63/68/57 64/69/55
f 25/70/58 61/71/32 63/68/57
f 46/72/25 70/73/59 67/74/24
f 48/75/60 69/76/61 70/73/59
f 49/77/62 68/78/63 69/79/61
f 50/80/64 66/81/19 68/78/63
f 41/82/35 75/83/65 72/84/29
f 43/85/66 74/86/67 75/83/65
f 44/87/68 73/88/69 74/89/67
f 45/90/70 71/91/37 73/88/69
f 36/92/13 80/93/71 77/94/14
f 38/95/72 79/96/73 80/93/71
f 39/97/74 78/98/75 79/99/73
f 40/100/76 76/101/18 78/98/75
f 31/102/77 85/103/78 82/104/30
f 33/105/79 84/106/80 85/103/78
f 34/107/81 83/108/82 84/109/80
f 35/110/83 81/111/33 83/108/82
f 16/112/84 90/113/85 87/114/11
f 18/115/86 89/116/87 90/113/85
f 19/117/88 88/118/89 89/119/87
f 20/120/90 86/121/40 88/118/89
f 21/62/38 55/43/41 23/65/54
f 23/65/54 54/46/43 24/122/56
f 24/123/56 53/48/45 25/124/58
f 25/124/58 51/51/17 22/125/16
f 16/112/84 60/53/47 18/115/86
f 18/115/86 59/56/49 19/126/88
f 19/127/88 58/58/51 20/128/90
f 20/128/90 56/61/20 17/129/21
f 41/82/35 65/63/53 43/85/66
f 43/85/66 64/66/55 44/130/68
f 44/131/68 63/68/57 45/132/70
f 45/132/70 61/71/32 42/133/31
f 26/52/23 70/73/59 28/55/48
f 28/55/48 69/76/61 29/134/50
f 29/135/50 68/78/63 30/136/52
f 30/136/52 66/81/19 27/137/1
f 31/102/77 75/83/65 33/105/79
f 33/105/79 74/86/67 34/138/81
f 34/139/81 73/88/69 35/140/83
f 35/140/83 71/91/37 32/141/34
f 46/72/25 80/93/71 48/75/60
f 48/75/60 79/96/73 49/142/62
f 49/143/62 78/98/75 50/144/64
f 50/144/64 76/101/18 47/145/4
f 11/42/27 85/103/78 13/45/42
f 13/45/42 84/106/80 14/146/44
f 14/147/44 83/108/82 15/148/46
f 15/148/46 81/111/33 12/149/39
f 36/92/13 90/113/85 38/95/72
f 38/95/72 89/116/87 39/150/74
f 39/151/74 88/118/89 40/152/76
f 40/152/76 86/121/40 37/153/7
f 1/22/22 51/17/17 12/154/39
f 27/1/1 66/19/19 9/2/2
f 47/4/4 76/18/18 8/5/5
f 37/7/7 86/40/40 7/8/8
f 57/10/10 16/155/84 87/11/11
f 5/12/12 87/11/11 36/13/13
f 10/15/15 2/3/3 22/16/16
f 76/18/18 37/7/7 4/9/9
f 66/19/19 47/4/4 3/6/6
f 56/20/20 27/1/1 2/3/3
f 17/21/21 56/20/20 10/15/15
f 26/23/23 57/10/10 5/12/12
f 67/24/24 5/12/12 77/14/14
f 6/26/26 82/30/30 11/27/27
f 72/29/29 31/156/77 82/30/30
f 9/2/2 3/6/6 42/31/31
f 4/9/9 7/8/8 81/33/33
f 41/35/35 72/29/29 6/26/26
f 3/6/6 8/5/5 71/37/37
f 62/36/36 6/26/26 52/28/28
f 8/5/5 4/9/9 32/34/34
f 2/3/3 9/2/2 61/32/32
f 7/8/8 1/41/22 12/39/39
f 86/40/40 17/157/21 1/41/22
f 11/42/27 13/45/42 55/43/41
f 13/45/42 14/146/44 54/46/43
f 14/47/44 15/50/46 53/48/45
f 15/50/46 12/158/39 51/51/17
f 26/52/23 28/55/48 60/53/47
f 28/55/48 29/134/50 59/56/49
f 29/57/50 30/60/52 58/58/51
f 30/60/52 27/159/1 56/61/20
f 21/62/38 23/65/54 65/63/53
f 23/65/54 24/122/56 64/66/55
f 24/67/56 25/70/58 63/68/57
f 25/70/58 22/160/16 61/71/32
f 46/72/25 48/75/60 70/73/59
f 48/75/60 49/142/62 69/76/61
f 49/77/62 50/80/64 68/78/63
f 50/80/64 47/161/4 66/81/19
f 41/82/35 43/85/66 75/83/65
f 43/85/66 44/130/68 74/86/67
f 44/87/68 45/90/70 73/88/69
f 45/90/70 42/162/31 71/91/37
f 36/92/13 38/95/72 80/93/71
f 38/95/72 39/150/74 79/96/73
f 39/97/74 40/100/76 78/98/75
f 40/100/76 37/163/7 76/101/18
f 31/102/77 33/105/79 85/103/78
f 33/105/79 34/138/81 84/106/80
f 34/107/81 35/110/83 83/108/82
f 35/110/83 32/164/34 81/111/33
f 16/112/84 18/115/86 90/113/85
f 18/115/86 19/126/88 89/116/87
f 19/117/88 20/120/90 88/118/89
f 20/120/90 17/165/21 86/121/40
f 21/62/38 52/44/28 55/43/41
f 23/65/54 55/43/41 54/46/43
f 24/123/56 54/49/43 53/48/45
f 25/124/58 53/48/45 51/51/17
f 16/112/84 57/54/10 60/53/47
f 18/115/86 60/53/47 59/56/49
f 19/127/88 59/59/49 58/58/51
f 20/128/90 58/58/51 56/61/20
f 41/82/35 62/64/36 65/63/53
f 43/85/66 65/63/53 64/66/55
f 44/131/68 64/69/55 63/68/57
f 45/132/70 63/68/57 61/71/32
f 26/52/23 67/74/24 70/73/59
f 28/55/48 70/73/59 69/76/61
f 29/135/50 69/79/61 68/78/63
f 30/136/52 68/78/63 66/81/19
f 31/102/77 72/84/29 75/83/65
f 33/105/79 75/83/65 74/86/67
f 34/139/81 74/89/67 73/88/69
f 35/140/83 73/88/69 71/91/37
f 46/72/25 77/94/14 80/93/71
f 48/75/60 80/93/71 79/96/73
f 49/143/62 79/99/73 78/98/75
f 50/144/64 78/98/75 76/101/18
f 11/42/27 82/104/30 85/103/78
f 13/45/42 85/103/78 84/106/80
f 14/147/44 84/109/80 83/108/82
f 15/148/46 83/108/82 81/111/33
f 36/92/13 87/114/11 90/113/85
f 38/95/72 90/113/85 89/116/87
f 39/151/74 89/119/87 88/118/89
f 40/152/76 88/118/89 86/121/40
f 1/22/22 10/15/15 51/17/17
