# Blender v2.82 (sub 7) OBJ File: 'scene - Kopie.blend'
# www.blender.org
mtllib boxes.mtl
o Cube.012_Cube.062
v 0.563558 12.049726 -26.479977
v 0.563558 12.945330 -26.479977
v 0.952657 12.049726 -27.286640
v 0.952657 12.945330 -27.286640
v 1.370222 12.049726 -26.090878
v 1.370222 12.945330 -26.090878
v 1.759322 12.049726 -26.897541
v 1.759322 12.945330 -26.897541
v 0.692842 11.983272 -22.774361
v 0.692842 12.878875 -22.774361
v 0.692842 11.983272 -23.669964
v 0.692842 12.878875 -23.669964
v 1.588446 11.983272 -22.774361
v 1.588446 12.878875 -22.774361
v 1.588446 11.983272 -23.669964
v 1.588446 12.878875 -23.669964
v 0.638421 11.983272 -23.804398
v 0.638421 12.878875 -23.804398
v 0.754865 11.983272 -24.692400
v 0.754865 12.878875 -24.692400
v 1.526422 11.983272 -23.687954
v 1.526422 12.878875 -23.687954
v 1.642866 11.983272 -24.575954
v 1.642866 12.878875 -24.575954
v 0.729221 12.903762 -23.263054
v 0.729221 13.799365 -23.263054
v 0.659204 12.903762 -24.155918
v 0.659204 13.799365 -24.155918
v 1.622083 12.903762 -23.333071
v 1.622083 13.799365 -23.333071
v 1.552067 12.903762 -24.225933
v 1.552067 13.799365 -24.225933
vt 0.973410 0.637494
vt 0.739686 0.402597
vt 0.974413 0.407980
vt 0.738485 0.629844
vt 0.505196 0.399946
vt 0.503909 0.626203
vt 0.270885 0.399360
vt 0.269598 0.625616
vt 0.036753 0.400837
vt 0.272171 0.173101
vt 0.506481 0.173688
vt 0.503004 0.856852
vt 0.969688 0.628584
vt 0.733458 0.393515
vt 0.969108 0.392935
vt 0.734039 0.629165
vt 0.497809 0.394096
vt 0.498390 0.629745
vt 0.262160 0.394676
vt 0.262740 0.630326
vt 0.026510 0.395257
vt 0.261579 0.159027
vt 0.497228 0.158446
vt 0.498970 0.865395
vt 0.965547 0.644209
vt 0.734448 0.410709
vt 0.966747 0.411909
vt 0.733248 0.643009
vt 0.502149 0.409509
vt 0.500949 0.641809
vt 0.269850 0.408308
vt 0.268650 0.640608
vt 0.037551 0.407108
vt 0.271051 0.176008
vt 0.503350 0.177209
vt 0.499749 0.874108
vt 0.981658 0.631061
vt 0.744961 0.392314
vt 0.982682 0.393339
vt 0.743936 0.630036
vt 0.507239 0.391289
vt 0.506214 0.629012
vt 0.269517 0.390265
vt 0.268492 0.627987
vt 0.031794 0.389240
vt 0.270541 0.152542
vt 0.508263 0.153567
vt 0.267467 0.865709
vt 0.035553 0.628084
vt 0.268693 0.856266
vt 0.027091 0.630906
vt 0.263321 0.865975
vt 0.036351 0.639408
vt 0.267450 0.872908
vt 0.030770 0.626962
vt 0.505189 0.866734
vn -0.9007 0.0000 -0.4345
vn 0.4345 0.0000 -0.9007
vn 0.9007 0.0000 0.4345
vn -0.4345 0.0000 0.9007
vn 0.0000 -1.0000 0.0000
vn 0.0000 1.0000 0.0000
vn -1.0000 0.0000 -0.0000
vn 0.0000 0.0000 -1.0000
vn 1.0000 0.0000 -0.0000
vn 0.0000 0.0000 1.0000
vn -0.9915 0.0000 -0.1300
vn 0.1300 0.0000 -0.9915
vn 0.9915 0.0000 0.1300
vn -0.1300 0.0000 0.9915
vn -0.9969 0.0000 0.0782
vn -0.0782 0.0000 -0.9969
vn 0.9969 0.0000 -0.0782
vn 0.0782 0.0000 0.9969
usemtl box
s off
f 2/1/1 3/2/1 1/3/1
f 4/4/2 7/5/2 3/2/2
f 8/6/3 5/7/3 7/5/3
f 6/8/4 1/9/4 5/7/4
f 7/5/5 1/10/5 3/11/5
f 4/12/6 6/8/6 8/6/6
f 10/13/7 11/14/7 9/15/7
f 12/16/8 15/17/8 11/14/8
f 16/18/9 13/19/9 15/17/9
f 14/20/10 9/21/10 13/19/10
f 15/17/5 9/22/5 11/23/5
f 12/24/6 14/20/6 16/18/6
f 18/25/11 19/26/11 17/27/11
f 20/28/12 23/29/12 19/26/12
f 24/30/13 21/31/13 23/29/13
f 22/32/14 17/33/14 21/31/14
f 23/29/5 17/34/5 19/35/5
f 20/36/6 22/32/6 24/30/6
f 26/37/15 27/38/15 25/39/15
f 28/40/16 31/41/16 27/38/16
f 32/42/17 29/43/17 31/41/17
f 30/44/18 25/45/18 29/43/18
f 31/41/5 25/46/5 27/47/5
f 32/42/6 26/48/6 30/44/6
f 2/1/1 4/4/1 3/2/1
f 4/4/2 8/6/2 7/5/2
f 8/6/3 6/8/3 5/7/3
f 6/8/4 2/49/4 1/9/4
f 7/5/5 5/7/5 1/10/5
f 4/12/6 2/50/6 6/8/6
f 10/13/7 12/16/7 11/14/7
f 12/16/8 16/18/8 15/17/8
f 16/18/9 14/20/9 13/19/9
f 14/20/10 10/51/10 9/21/10
f 15/17/5 13/19/5 9/22/5
f 12/24/6 10/52/6 14/20/6
f 18/25/11 20/28/11 19/26/11
f 20/28/12 24/30/12 23/29/12
f 24/30/13 22/32/13 21/31/13
f 22/32/14 18/53/14 17/33/14
f 23/29/5 21/31/5 17/34/5
f 20/36/6 18/54/6 22/32/6
f 26/37/15 28/40/15 27/38/15
f 28/40/16 32/42/16 31/41/16
f 32/42/17 30/44/17 29/43/17
f 30/44/18 26/55/18 25/45/18
f 31/41/5 29/43/5 25/46/5
f 32/42/6 28/56/6 26/48/6
